<svg viewBox="0 0 24 24" xmlns="http://www.w3.org/2000/svg">
  <!-- Feuilles marron/sèches -->
  <path d="M12 2L10 5L8 3L9 6L7 7L9 8L10 6L12 2Z" fill="#92400e" stroke="#78350f" stroke-width="0.3"/>
  <path d="M12 2L14 5L16 3L15 6L17 7L15 8L14 6L12 2Z" fill="#92400e" stroke="#78350f" stroke-width="0.3"/>

  <!-- Corps de la carotte rouge foncé -->
  <path d="M12 6C10 6 8.5 7.5 8.5 10C8.5 13 9.5 16 11 18C11.5 18.5 12 19 12 19C12 19 12.5 18.5 13 18C14.5 16 15.5 13 15.5 10C15.5 7.5 14 6 12 6Z"
        fill="#dc2626" stroke="#991b1b" stroke-width="0.5"/>

  <!-- Détails sur la carotte -->
  <path d="M10 9C10 9 9.5 10.5 9.5 12" stroke="#991b1b" stroke-width="0.3" fill="none" opacity="0.5" stroke-linecap="round"/>
  <path d="M14 9C14 9 14.5 10.5 14.5 12" stroke="#991b1b" stroke-width="0.3" fill="none" opacity="0.5" stroke-linecap="round"/>
  <path d="M11 13C11 13 10.5 14.5 10.5 16" stroke="#991b1b" stroke-width="0.3" fill="none" opacity="0.5" stroke-linecap="round"/>
  <path d="M13 13C13 13 13.5 14.5 13.5 16" stroke="#991b1b" stroke-width="0.3" fill="none" opacity="0.5" stroke-linecap="round"/>

  <!-- Ombre -->
  <ellipse cx="13.5" cy="9" rx="0.8" ry="1.5" fill="black" opacity="0.2"/>
</svg>
