<?xml version="1.0" encoding="UTF-8"?>
<svg version="1.1" xmlns="http://www.w3.org/2000/svg" width="771" height="820">
<path d="M0 0 C6.89442913 4.42887169 10.5805468 9.71028999 13.484375 17.328125 C13.74412109 17.97910156 14.00386719 18.63007813 14.27148438 19.30078125 C16.40733869 24.76459461 17.42723383 29.49389369 17.39453125 35.34765625 C17.38969727 36.8800293 17.38969727 36.8800293 17.38476562 38.44335938 C17.37219727 40.02600586 17.37219727 40.02600586 17.359375 41.640625 C17.35486328 42.71505859 17.35035156 43.78949219 17.34570312 44.89648438 C17.33395229 47.54042183 17.31752287 50.18424452 17.296875 52.828125 C17.80114014 52.43343018 18.30540527 52.03873535 18.82495117 51.63208008 C22.93117862 48.47555949 26.92254406 45.77089644 31.609375 43.515625 C33.11951172 42.77892578 33.11951172 42.77892578 34.66015625 42.02734375 C41.55700296 38.89055569 49.49494419 38.65298275 56.734375 40.890625 C61.88944143 44.78835815 66.14459082 49.29851466 67.296875 55.828125 C67.61927421 67.41434663 61.71548887 76.39368434 54.296875 84.828125 C52.99736208 86.13285685 51.68467764 87.42459775 50.359375 88.703125 C46.41166565 92.52866153 43.3283191 96.74951134 40.16796875 101.234375 C38.60611925 103.39944403 37.00556436 105.39862424 35.234375 107.390625 C28.38885094 115.23793307 22.73615826 123.94018564 19.296875 133.828125 C20.02238952 137.16332944 20.02238952 137.16332944 23.54296875 138.51953125 C24.93930721 139.14501137 26.33649682 139.76859361 27.734375 140.390625 C42.65155168 147.52406356 48.74117586 157.86941476 54.421875 172.78125 C56.70582198 180.73427967 56.45368014 188.80822369 56.421875 197.015625 C56.41788696 198.85411011 56.41788696 198.85411011 56.41381836 200.72973633 C56.37390913 208.49890048 56.2131856 216.25433178 55.859375 224.015625 C55.80064209 225.34146606 55.80064209 225.34146606 55.74072266 226.6940918 C55.42537317 232.69962683 55.42537317 232.69962683 54.296875 233.828125 C54.07966423 235.94724984 53.92511237 238.07285429 53.796875 240.19921875 C53.714375 241.49537109 53.631875 242.79152344 53.546875 244.12695312 C53.46303907 245.50647996 53.37971171 246.8860378 53.296875 248.265625 C53.13514389 250.95219352 52.96767079 253.63818811 52.796875 256.32421875 C52.7246875 257.52232178 52.6525 258.7204248 52.578125 259.95483398 C52.296875 262.828125 52.296875 262.828125 51.296875 264.828125 C51.09956592 266.40151513 50.9524886 267.98136832 50.83203125 269.5625 C50.75533203 270.52124023 50.67863281 271.47998047 50.59960938 272.46777344 C50.52033203 273.49418945 50.44105469 274.52060547 50.359375 275.578125 C49.84188079 281.9456383 49.31906711 288.26789972 48.296875 294.578125 C46.98572563 302.91992574 46.54287496 311.34403006 45.99414062 319.76464844 C45.91744141 320.90450195 45.84074219 322.04435547 45.76171875 323.21875 C45.695896 324.25032227 45.63007324 325.28189453 45.56225586 326.34472656 C45.296875 328.828125 45.296875 328.828125 44.296875 330.828125 C44.04501036 332.19572479 43.83506125 333.57119968 43.6484375 334.94921875 C43.53161621 335.79323242 43.41479492 336.63724609 43.29443359 337.50683594 C43.17148926 338.41723633 43.04854492 339.32763672 42.921875 340.265625 C41.80867238 348.30896448 40.61591705 356.33283111 39.29931641 364.34545898 C38.57144681 368.83967729 38.00693043 373.32753474 37.52490234 377.85449219 C37.27185825 380.04465117 36.89395296 382.17478693 36.421875 384.328125 C35.44316125 389.0230075 34.57282851 393.73157729 33.734375 398.453125 C33.60756348 399.15759766 33.48075195 399.86207031 33.35009766 400.58789062 C32.72077045 404.14936719 32.18013439 407.6952845 31.76953125 411.2890625 C31.296875 414.828125 31.296875 414.828125 30.296875 415.828125 C29.84800421 418.88723604 29.47944169 421.94546538 29.13476562 425.01757812 C28.62653243 429.20327103 27.65349067 432.8516682 26.296875 436.828125 C25.46344641 440.272642 24.73288257 443.73930263 23.984375 447.203125 C21.28589261 459.35888664 18.0179665 471.17076429 13.1875 482.671875 C12.34815374 484.70397647 11.63172107 486.74811094 10.921875 488.828125 C7.88346713 496.96907653 3.18063832 504.94831621 -4.42578125 509.43359375 C-11.06600427 512.25905217 -18.65090392 511.51733621 -25.578125 509.953125 C-34.80497714 503.67886554 -40.05302178 493.24114911 -43.578125 482.96484375 C-44.21527221 481.18835343 -44.87571445 479.41874841 -45.60888672 477.6796875 C-48.3920246 471.06492393 -50.21433045 464.43769611 -51.828125 457.453125 C-52.07949219 456.40640625 -52.33085937 455.3596875 -52.58984375 454.28125 C-54.05581382 448.06430887 -55.26367496 441.85397173 -56.23242188 435.5402832 C-56.71220619 432.7757998 -57.35875476 430.10177908 -58.078125 427.390625 C-61.51841017 414.01367862 -63.88784746 400.44866198 -65.10766602 386.69311523 C-65.38885802 382.63071515 -65.38885802 382.63071515 -66.703125 378.828125 C-66.90844632 377.47927798 -67.06902344 376.1234033 -67.203125 374.765625 C-67.326875 373.57066406 -67.326875 373.57066406 -67.453125 372.3515625 C-67.61979167 370.66927083 -67.78645833 368.98697917 -67.953125 367.3046875 C-68.076875 366.10972656 -68.076875 366.10972656 -68.203125 364.890625 C-68.2753125 364.15972656 -68.3475 363.42882812 -68.421875 362.67578125 C-68.61990544 360.7382961 -68.61990544 360.7382961 -69.703125 358.828125 C-69.91322922 356.9796821 -70.07150997 355.12521507 -70.203125 353.26953125 C-70.285625 352.16158203 -70.368125 351.05363281 -70.453125 349.91210938 C-70.535625 348.75001953 -70.618125 347.58792969 -70.703125 346.390625 C-70.86628526 344.10000796 -71.03279833 341.80962656 -71.203125 339.51953125 C-71.2753125 338.50060791 -71.3475 337.48168457 -71.421875 336.43188477 C-71.62169721 333.7182121 -71.62169721 333.7182121 -72.703125 330.828125 C-72.90946417 328.72747765 -73.06952886 326.62214991 -73.203125 324.515625 C-73.285625 323.27554687 -73.368125 322.03546875 -73.453125 320.7578125 C-73.703125 316.828125 -73.703125 316.828125 -73.953125 312.8984375 C-74.035625 311.65835937 -74.118125 310.41828125 -74.203125 309.140625 C-74.2753125 308.00238281 -74.3475 306.86414063 -74.421875 305.69140625 C-74.6030125 302.75850637 -74.6030125 302.75850637 -75.703125 299.828125 C-76.06518348 295.77660021 -76.13683593 291.70543072 -76.265625 287.640625 C-76.3073584 286.32940674 -76.3490918 285.01818848 -76.39208984 283.66723633 C-76.80775276 269.11996776 -76.81373121 254.5677422 -76.828125 240.015625 C-76.8307132 238.80774323 -76.83330139 237.59986145 -76.83596802 236.3553772 C-76.90112222 197.73006765 -76.90112222 197.73006765 -73.953125 185.078125 C-73.7782959 184.29574463 -73.6034668 183.51336426 -73.42333984 182.70727539 C-69.6975875 166.69046561 -64.24725526 152.9167147 -50.703125 142.828125 C-45.96968662 139.92567281 -42.31707467 137.828125 -36.703125 137.828125 C-37.31263033 133.3126348 -39.11901065 129.65914414 -41.265625 125.703125 C-41.62060059 125.04368896 -41.97557617 124.38425293 -42.34130859 123.70483398 C-45.64470276 117.70150836 -49.51752382 112.24939223 -53.703125 106.828125 C-54.76602172 105.37008079 -55.82855597 103.91177223 -56.890625 102.453125 C-59.27159632 99.29977424 -61.83636766 96.55837009 -64.703125 93.828125 C-66.14667005 92.43854426 -67.58378714 91.04226593 -69.015625 89.640625 C-69.71300781 88.96644531 -70.41039062 88.29226563 -71.12890625 87.59765625 C-72.703125 85.828125 -72.703125 85.828125 -72.703125 83.828125 C-73.363125 83.828125 -74.023125 83.828125 -74.703125 83.828125 C-78.703125 78.41636029 -78.703125 78.41636029 -78.703125 75.828125 C-79.363125 75.828125 -80.023125 75.828125 -80.703125 75.828125 C-85.3181357 68.22571898 -85.79128718 60.55268196 -84.703125 51.828125 C-83.13890459 47.02733795 -80.48018796 43.96504305 -76.203125 41.328125 C-69.93509617 38.7554266 -63.06536433 38.27253399 -56.6328125 40.56640625 C-49.76561881 43.50057083 -43.39779781 46.96575052 -37.703125 51.828125 C-37.66445313 49.90613281 -37.66445313 49.90613281 -37.625 47.9453125 C-37.18769656 32.86346265 -35.22560626 18.78229651 -26.703125 5.828125 C-19.08302447 -0.86441322 -9.88526609 -4.28551998 0 0 Z " fill="#EA9248" transform="translate(392.703125,169.171875)"/>
<path d="M0 0 C6.89442913 4.42887169 10.5805468 9.71028999 13.484375 17.328125 C13.74412109 17.97910156 14.00386719 18.63007813 14.27148438 19.30078125 C16.40733869 24.76459461 17.42723383 29.49389369 17.39453125 35.34765625 C17.38969727 36.8800293 17.38969727 36.8800293 17.38476562 38.44335938 C17.37219727 40.02600586 17.37219727 40.02600586 17.359375 41.640625 C17.35486328 42.71505859 17.35035156 43.78949219 17.34570312 44.89648438 C17.33395229 47.54042183 17.31752287 50.18424452 17.296875 52.828125 C17.80114014 52.43343018 18.30540527 52.03873535 18.82495117 51.63208008 C22.93117862 48.47555949 26.92254406 45.77089644 31.609375 43.515625 C33.11951172 42.77892578 33.11951172 42.77892578 34.66015625 42.02734375 C41.55700296 38.89055569 49.49494419 38.65298275 56.734375 40.890625 C61.88944143 44.78835815 66.14459082 49.29851466 67.296875 55.828125 C67.61927421 67.41434663 61.71548887 76.39368434 54.296875 84.828125 C52.99736208 86.13285685 51.68467764 87.42459775 50.359375 88.703125 C46.41166565 92.52866153 43.3283191 96.74951134 40.16796875 101.234375 C38.60611925 103.39944403 37.00556436 105.39862424 35.234375 107.390625 C28.38885094 115.23793307 22.73615826 123.94018564 19.296875 133.828125 C20.02238952 137.16332944 20.02238952 137.16332944 23.54296875 138.51953125 C24.93930721 139.14501137 26.33649682 139.76859361 27.734375 140.390625 C42.65155168 147.52406356 48.74117586 157.86941476 54.421875 172.78125 C56.70582198 180.73427967 56.45368014 188.80822369 56.421875 197.015625 C56.41788696 198.85411011 56.41788696 198.85411011 56.41381836 200.72973633 C56.37390913 208.49890048 56.2131856 216.25433178 55.859375 224.015625 C55.80064209 225.34146606 55.80064209 225.34146606 55.74072266 226.6940918 C55.42537317 232.69962683 55.42537317 232.69962683 54.296875 233.828125 C54.07966423 235.94724984 53.92511237 238.07285429 53.796875 240.19921875 C53.714375 241.49537109 53.631875 242.79152344 53.546875 244.12695312 C53.46303907 245.50647996 53.37971171 246.8860378 53.296875 248.265625 C53.13514389 250.95219352 52.96767079 253.63818811 52.796875 256.32421875 C52.7246875 257.52232178 52.6525 258.7204248 52.578125 259.95483398 C52.296875 262.828125 52.296875 262.828125 51.296875 264.828125 C51.09956592 266.40151513 50.9524886 267.98136832 50.83203125 269.5625 C50.75533203 270.52124023 50.67863281 271.47998047 50.59960938 272.46777344 C50.52033203 273.49418945 50.44105469 274.52060547 50.359375 275.578125 C49.84188079 281.9456383 49.31906711 288.26789972 48.296875 294.578125 C46.98572563 302.91992574 46.54287496 311.34403006 45.99414062 319.76464844 C45.91744141 320.90450195 45.84074219 322.04435547 45.76171875 323.21875 C45.695896 324.25032227 45.63007324 325.28189453 45.56225586 326.34472656 C45.296875 328.828125 45.296875 328.828125 44.296875 330.828125 C44.04501036 332.19572479 43.83506125 333.57119968 43.6484375 334.94921875 C43.53161621 335.79323242 43.41479492 336.63724609 43.29443359 337.50683594 C43.17148926 338.41723633 43.04854492 339.32763672 42.921875 340.265625 C41.80867238 348.30896448 40.61591705 356.33283111 39.29931641 364.34545898 C38.57144681 368.83967729 38.00693043 373.32753474 37.52490234 377.85449219 C37.27185825 380.04465117 36.89395296 382.17478693 36.421875 384.328125 C35.44316125 389.0230075 34.57282851 393.73157729 33.734375 398.453125 C33.60756348 399.15759766 33.48075195 399.86207031 33.35009766 400.58789062 C32.72077045 404.14936719 32.18013439 407.6952845 31.76953125 411.2890625 C31.296875 414.828125 31.296875 414.828125 30.296875 415.828125 C29.84800421 418.88723604 29.47944169 421.94546538 29.13476562 425.01757812 C28.62653243 429.20327103 27.65349067 432.8516682 26.296875 436.828125 C25.46344641 440.272642 24.73288257 443.73930263 23.984375 447.203125 C21.28589261 459.35888664 18.0179665 471.17076429 13.1875 482.671875 C12.34815374 484.70397647 11.63172107 486.74811094 10.921875 488.828125 C7.88346713 496.96907653 3.18063832 504.94831621 -4.42578125 509.43359375 C-11.06600427 512.25905217 -18.65090392 511.51733621 -25.578125 509.953125 C-34.80497714 503.67886554 -40.05302178 493.24114911 -43.578125 482.96484375 C-44.21527221 481.18835343 -44.87571445 479.41874841 -45.60888672 477.6796875 C-48.3920246 471.06492393 -50.21433045 464.43769611 -51.828125 457.453125 C-52.07949219 456.40640625 -52.33085937 455.3596875 -52.58984375 454.28125 C-54.05581382 448.06430887 -55.26367496 441.85397173 -56.23242188 435.5402832 C-56.71220619 432.7757998 -57.35875476 430.10177908 -58.078125 427.390625 C-61.51841017 414.01367862 -63.88784746 400.44866198 -65.10766602 386.69311523 C-65.38885802 382.63071515 -65.38885802 382.63071515 -66.703125 378.828125 C-66.90844632 377.47927798 -67.06902344 376.1234033 -67.203125 374.765625 C-67.326875 373.57066406 -67.326875 373.57066406 -67.453125 372.3515625 C-67.61979167 370.66927083 -67.78645833 368.98697917 -67.953125 367.3046875 C-68.076875 366.10972656 -68.076875 366.10972656 -68.203125 364.890625 C-68.2753125 364.15972656 -68.3475 363.42882812 -68.421875 362.67578125 C-68.61990544 360.7382961 -68.61990544 360.7382961 -69.703125 358.828125 C-69.91322922 356.9796821 -70.07150997 355.12521507 -70.203125 353.26953125 C-70.285625 352.16158203 -70.368125 351.05363281 -70.453125 349.91210938 C-70.535625 348.75001953 -70.618125 347.58792969 -70.703125 346.390625 C-70.86628526 344.10000796 -71.03279833 341.80962656 -71.203125 339.51953125 C-71.2753125 338.50060791 -71.3475 337.48168457 -71.421875 336.43188477 C-71.62169721 333.7182121 -71.62169721 333.7182121 -72.703125 330.828125 C-72.90946417 328.72747765 -73.06952886 326.62214991 -73.203125 324.515625 C-73.285625 323.27554687 -73.368125 322.03546875 -73.453125 320.7578125 C-73.703125 316.828125 -73.703125 316.828125 -73.953125 312.8984375 C-74.035625 311.65835937 -74.118125 310.41828125 -74.203125 309.140625 C-74.2753125 308.00238281 -74.3475 306.86414063 -74.421875 305.69140625 C-74.6030125 302.75850637 -74.6030125 302.75850637 -75.703125 299.828125 C-76.06518348 295.77660021 -76.13683593 291.70543072 -76.265625 287.640625 C-76.3073584 286.32940674 -76.3490918 285.01818848 -76.39208984 283.66723633 C-76.80775276 269.11996776 -76.81373121 254.5677422 -76.828125 240.015625 C-76.8307132 238.80774323 -76.83330139 237.59986145 -76.83596802 236.3553772 C-76.90112222 197.73006765 -76.90112222 197.73006765 -73.953125 185.078125 C-73.7782959 184.29574463 -73.6034668 183.51336426 -73.42333984 182.70727539 C-69.6975875 166.69046561 -64.24725526 152.9167147 -50.703125 142.828125 C-45.96968662 139.92567281 -42.31707467 137.828125 -36.703125 137.828125 C-37.31263033 133.3126348 -39.11901065 129.65914414 -41.265625 125.703125 C-41.62060059 125.04368896 -41.97557617 124.38425293 -42.34130859 123.70483398 C-45.64470276 117.70150836 -49.51752382 112.24939223 -53.703125 106.828125 C-54.76602172 105.37008079 -55.82855597 103.91177223 -56.890625 102.453125 C-59.27159632 99.29977424 -61.83636766 96.55837009 -64.703125 93.828125 C-66.14667005 92.43854426 -67.58378714 91.04226593 -69.015625 89.640625 C-69.71300781 88.96644531 -70.41039062 88.29226563 -71.12890625 87.59765625 C-72.703125 85.828125 -72.703125 85.828125 -72.703125 83.828125 C-73.363125 83.828125 -74.023125 83.828125 -74.703125 83.828125 C-78.703125 78.41636029 -78.703125 78.41636029 -78.703125 75.828125 C-79.363125 75.828125 -80.023125 75.828125 -80.703125 75.828125 C-85.3181357 68.22571898 -85.79128718 60.55268196 -84.703125 51.828125 C-83.13890459 47.02733795 -80.48018796 43.96504305 -76.203125 41.328125 C-69.93509617 38.7554266 -63.06536433 38.27253399 -56.6328125 40.56640625 C-49.76561881 43.50057083 -43.39779781 46.96575052 -37.703125 51.828125 C-37.66445313 49.90613281 -37.66445313 49.90613281 -37.625 47.9453125 C-37.18769656 32.86346265 -35.22560626 18.78229651 -26.703125 5.828125 C-19.08302447 -0.86441322 -9.88526609 -4.28551998 0 0 Z M-32.703125 145.828125 C-33.59128906 146.1065625 -34.47945313 146.385 -35.39453125 146.671875 C-45.20396177 150.14636031 -53.6972344 156.76683501 -58.36328125 166.17578125 C-65.0319793 183.84132958 -67.90041687 202.23604506 -67.80078125 221.0859375 C-67.7993663 222.11500214 -67.79795135 223.14406677 -67.79649353 224.20431519 C-67.79094755 227.45394949 -67.77840546 230.70351193 -67.765625 233.953125 C-67.76060301 236.171874 -67.75604133 238.39062409 -67.75195312 240.609375 C-67.74099589 246.01564904 -67.72431258 251.42188188 -67.703125 256.828125 C-66.27528447 256.35253205 -64.84747471 255.87684673 -63.41967773 255.40112305 C-62.62456284 255.13623581 -61.82944794 254.87134857 -61.01023865 254.59843445 C-59.08513738 253.95567301 -57.16152182 253.30846395 -55.23828125 252.66015625 C-42.52705814 248.92828985 -29.85120328 249.43681315 -16.703125 249.828125 C-17.198125 251.808125 -17.198125 251.808125 -17.703125 253.828125 C-18.25548828 253.84270752 -18.80785156 253.85729004 -19.37695312 253.87231445 C-36.18265812 254.36485945 -51.2493518 255.60933699 -66.703125 262.828125 C-66.83272862 272.18617079 -66.44868195 281.49020066 -65.890625 290.828125 C-65.84777374 291.56036285 -65.80492249 292.29260071 -65.76077271 293.04702759 C-64.7538571 310.03070549 -63.23133874 326.99744498 -60.703125 343.828125 C-57.44876547 343.23966156 -54.49181439 342.41183459 -51.390625 341.28125 C-44.9314374 339.31186862 -38.49277186 339.44693494 -31.81396484 339.546875 C-29.67918685 339.57847939 -27.5451468 339.58790205 -25.41015625 339.59375 C-15.03222604 339.66357448 -15.03222604 339.66357448 -12.703125 340.828125 C-12.703125 342.148125 -12.703125 343.468125 -12.703125 344.828125 C-13.40171631 344.81241455 -14.10030762 344.7967041 -14.82006836 344.78051758 C-30.31305155 344.47897886 -44.6719598 344.93815009 -59.703125 348.828125 C-58.73050501 365.20909331 -56.41712057 381.31025332 -53.72631836 397.48510742 C-53.26239777 400.28510298 -52.80980987 403.08679281 -52.35742188 405.88867188 C-52.05798033 407.70063478 -51.75787391 409.51248795 -51.45703125 411.32421875 C-51.32567276 412.14627304 -51.19431427 412.96832733 -51.05897522 413.81529236 C-50.11990933 419.36362882 -48.62614516 424.54141109 -46.703125 429.828125 C-45.42695313 429.81652344 -44.15078125 429.80492187 -42.8359375 429.79296875 C-41.16666813 429.78359083 -39.49739717 429.77449063 -37.828125 429.765625 C-36.98636719 429.75724609 -36.14460938 429.74886719 -35.27734375 429.74023438 C-34.06884766 429.73540039 -34.06884766 429.73540039 -32.8359375 429.73046875 C-31.72049561 429.72261353 -31.72049561 429.72261353 -30.58251953 429.71459961 C-28.703125 429.828125 -28.703125 429.828125 -26.703125 430.828125 C-26.373125 432.148125 -26.043125 433.468125 -25.703125 434.828125 C-32.303125 434.828125 -38.903125 434.828125 -45.703125 434.828125 C-42.89508539 454.48440226 -38.25360423 484.12423857 -23.265625 498.578125 C-20.65067769 500.53069579 -19.51577354 500.85770681 -16.140625 501.390625 C-11.238723 500.58849558 -8.29715117 499.73651827 -5.01953125 495.8125 C9.13737377 475.25503436 13.13453816 448.16449663 18.171875 424.265625 C18.47976959 422.81097336 18.47976959 422.81097336 18.79388428 421.32693481 C19.38204699 418.53565663 19.96215262 415.74284215 20.5390625 412.94921875 C20.71687256 412.10422821 20.89468262 411.25923767 21.07788086 410.38864136 C21.87532889 406.47565084 22.52562783 402.84654965 22.296875 398.828125 C15.25612888 397.1625619 8.58742734 396.47588655 1.359375 396.515625 C0.37316162 396.51691406 -0.61305176 396.51820313 -1.62915039 396.51953125 C-11.16778648 396.64198826 -20.3590869 397.99638824 -29.703125 399.828125 C-29.373125 398.178125 -29.043125 396.528125 -28.703125 394.828125 C-13.86341097 390.12643343 1.85205218 388.72136752 17.140625 392.390625 C19.56955104 392.88345057 21.82496348 392.89775631 24.296875 392.828125 C24.58691406 390.94480469 24.58691406 390.94480469 24.8828125 389.0234375 C25.14572033 387.33331575 25.40874759 385.64321258 25.671875 383.953125 C25.79820312 383.13070312 25.92453125 382.30828125 26.0546875 381.4609375 C26.69970974 377.33279513 27.40543734 373.23967327 28.2734375 369.15234375 C29.6669599 362.33008478 30.44531572 355.42207012 31.296875 348.515625 C32.37353857 339.85289926 33.49977787 331.20676192 34.86865234 322.58422852 C35.95316441 315.60415055 36.40902713 308.8937092 36.296875 301.828125 C25.25212791 296.30575145 12.099259 294.62004541 -0.140625 294.765625 C-1.23793945 294.77239258 -1.23793945 294.77239258 -2.35742188 294.77929688 C-4.13935919 294.79094352 -5.92125363 294.80887309 -7.703125 294.828125 C-7.703125 293.178125 -7.703125 291.528125 -7.703125 289.828125 C6.41718252 289.18434198 18.75993784 290.46831509 32.36181641 294.36914062 C34.45191873 294.94352031 34.45191873 294.94352031 37.296875 294.828125 C37.47863281 293.55582031 37.47863281 293.55582031 37.6640625 292.2578125 C37.83164062 291.08476562 37.99921875 289.91171875 38.171875 288.703125 C38.35492188 287.40632812 38.53796875 286.10953125 38.7265625 284.7734375 C39.06800543 282.41140077 39.42281836 280.05115136 39.8046875 277.6953125 C41.73251393 265.48574514 42.43244868 253.14967448 43.296875 240.828125 C38.78153875 239.32301292 34.18540348 239.54408715 29.44921875 239.40234375 C28.40894531 239.21285156 27.36867188 239.02335937 26.296875 238.828125 C25.636875 237.508125 24.976875 236.188125 24.296875 234.828125 C30.896875 234.828125 37.496875 234.828125 44.296875 234.828125 C45.21675809 227.12410413 45.4062767 219.58349026 45.296875 211.828125 C28.63397704 205.84838999 12.95639696 203.34805001 -4.703125 202.828125 C-4.373125 201.508125 -4.043125 200.188125 -3.703125 198.828125 C12.2919458 198.38152013 27.27317422 198.93602102 42.29296875 205.05859375 C44.25028886 205.94762209 44.25028886 205.94762209 46.296875 205.828125 C46.61273122 188.89472196 46.80602388 171.63910365 35.35546875 157.8984375 C23.0066008 145.47927239 7.45318168 142.56038153 -9.390625 142.453125 C-17.48131642 142.51198489 -24.96571992 143.31048408 -32.703125 145.828125 Z " fill="#4F4C3A" transform="translate(392.703125,169.171875)"/>
<path d="M0 0 C6.93767043 4.31677271 9.38781946 11.36629544 11.20703125 19.01953125 C12.41770129 25.37924414 12.37035169 31.79603402 12.375 38.25 C12.37653076 39.43343994 12.37806152 40.61687988 12.37963867 41.83618164 C12.28876431 49.0974999 11.50854388 55.90422848 10 63 C9.66117344 64.99907671 9.32455828 66.99855726 9 69 C10.98 69.495 10.98 69.495 13 70 C14.75085334 67.93821926 16.50070381 65.87560123 18.25 63.8125 C18.74113281 63.23435547 19.23226562 62.65621094 19.73828125 62.06054688 C21.91758045 59.48897382 24.06590844 56.91556985 26.140625 54.2578125 C31.89557667 47.2696569 41.55466992 41.40162038 50.37109375 39.484375 C53.62998788 39.31188155 56.03058824 40.01338236 59 41.3125 C61.71069622 44.95499804 61.82854815 47.60237436 61.59765625 52.078125 C60.50743715 57.40808503 57.45379597 60.91878434 54 65 C53.12174935 66.06587389 52.24417848 67.13230817 51.3671875 68.19921875 C47.37711724 73.00738684 43.28291599 77.70521254 39.0625 82.3125 C26.87672819 95.95254087 17.06283225 110.67762214 11 128 C9.02 128 7.04 128 5 128 C5.56266377 122.60082207 6.48500324 117.56158754 8.125 112.375 C8.33801758 111.69203857 8.55103516 111.00907715 8.77050781 110.30541992 C10.76630944 104.19451247 13.49498182 98.63428363 16.546875 92.98828125 C17.87933545 90.24814082 18.57717743 87.99870215 19 85 C16.61982239 84.9393354 16.61982239 84.9393354 14 86 C12.39078147 88.42297108 11.1955594 90.57021871 10 93.1875 C9.6582373 93.90639404 9.31647461 94.62528809 8.96435547 95.3659668 C4.21236531 105.56177768 0.53075428 115.80493137 -1 127 C-3.31 127 -5.62 127 -8 127 C-8.10957031 126.21496094 -8.21914063 125.42992187 -8.33203125 124.62109375 C-9.24071049 118.60017031 -10.37837523 113.53454118 -13 108 C-13.7982484 105.85660636 -14.58920933 103.71049205 -15.375 101.5625 C-18.74586671 92.08097433 -18.74586671 92.08097433 -25.8125 85.5 C-26.534375 85.335 -27.25625 85.17 -28 85 C-26.51921189 89.96499543 -24.78487531 94.53763748 -22.48681641 99.18823242 C-18.13789185 108.00669354 -14 118.01292061 -14 128 C-15.98 128 -17.96 128 -20 128 C-20.33825806 127.23876831 -20.33825806 127.23876831 -20.68334961 126.4621582 C-25.59107402 115.51529899 -30.69587616 105.5663566 -38 96 C-38.63010986 95.16009521 -38.63010986 95.16009521 -39.27294922 94.30322266 C-44.24025995 87.69303421 -49.43032446 81.43313579 -55.125 75.4375 C-70.26597143 59.48391905 -70.26597143 59.48391905 -71.375 49.6875 C-70.8825228 44.84480753 -69.72392118 43.11593405 -66 40 C-60.64001536 38.39952363 -56.29913945 40.0688295 -51.5 42.5625 C-39.90193012 49.46302761 -31.28044453 58.09441158 -23.11328125 68.7421875 C-20.98224639 71.01896781 -20.04265916 71.68405796 -17 72 C-17.45279974 68.84946707 -18.02874909 65.90728706 -18.97265625 62.86328125 C-21.70663314 53.95580814 -22.4062592 45.5654955 -22.4375 36.25 C-22.4521228 34.5645105 -22.4521228 34.5645105 -22.46704102 32.8449707 C-22.35227636 21.42128062 -20.61914593 10.88252472 -13 2 C-8.90291715 -1.66581097 -5.07046955 -1.51188443 0 0 Z " fill="#70B673" transform="translate(388,178)"/>
<path d="M0 0 C6.89442913 4.42887169 10.5805468 9.71028999 13.484375 17.328125 C13.74412109 17.97910156 14.00386719 18.63007813 14.27148438 19.30078125 C16.40733869 24.76459461 17.42723383 29.49389369 17.39453125 35.34765625 C17.38969727 36.8800293 17.38969727 36.8800293 17.38476562 38.44335938 C17.37219727 40.02600586 17.37219727 40.02600586 17.359375 41.640625 C17.35486328 42.71505859 17.35035156 43.78949219 17.34570312 44.89648438 C17.33395229 47.54042183 17.31752287 50.18424452 17.296875 52.828125 C17.80114014 52.43343018 18.30540527 52.03873535 18.82495117 51.63208008 C22.93117862 48.47555949 26.92254406 45.77089644 31.609375 43.515625 C33.11951172 42.77892578 33.11951172 42.77892578 34.66015625 42.02734375 C41.55700296 38.89055569 49.49494419 38.65298275 56.734375 40.890625 C61.88944143 44.78835815 66.14459082 49.29851466 67.296875 55.828125 C67.61927421 67.41434663 61.71548887 76.39368434 54.296875 84.828125 C52.99736208 86.13285685 51.68467764 87.42459775 50.359375 88.703125 C46.41166565 92.52866153 43.3283191 96.74951134 40.16796875 101.234375 C38.60611925 103.39944403 37.00556436 105.39862424 35.234375 107.390625 C28.38885094 115.23793307 22.73615826 123.94018564 19.296875 133.828125 C20.02238952 137.16332944 20.02238952 137.16332944 23.54296875 138.51953125 C24.93930721 139.14501137 26.33649682 139.76859361 27.734375 140.390625 C42.65155168 147.52406356 48.74117586 157.86941476 54.421875 172.78125 C56.70582198 180.73427967 56.45368014 188.80822369 56.421875 197.015625 C56.41788696 198.85411011 56.41788696 198.85411011 56.41381836 200.72973633 C56.37390913 208.49890048 56.2131856 216.25433178 55.859375 224.015625 C55.80064209 225.34146606 55.80064209 225.34146606 55.74072266 226.6940918 C55.42537317 232.69962683 55.42537317 232.69962683 54.296875 233.828125 C54.07966423 235.94724984 53.92511237 238.07285429 53.796875 240.19921875 C53.714375 241.49537109 53.631875 242.79152344 53.546875 244.12695312 C53.46303907 245.50647996 53.37971171 246.8860378 53.296875 248.265625 C53.13514389 250.95219352 52.96767079 253.63818811 52.796875 256.32421875 C52.7246875 257.52232178 52.6525 258.7204248 52.578125 259.95483398 C52.296875 262.828125 52.296875 262.828125 51.296875 264.828125 C51.09956592 266.40151513 50.9524886 267.98136832 50.83203125 269.5625 C50.75533203 270.52124023 50.67863281 271.47998047 50.59960938 272.46777344 C50.52033203 273.49418945 50.44105469 274.52060547 50.359375 275.578125 C49.84188079 281.9456383 49.31906711 288.26789972 48.296875 294.578125 C46.98572563 302.91992574 46.54287496 311.34403006 45.99414062 319.76464844 C45.91744141 320.90450195 45.84074219 322.04435547 45.76171875 323.21875 C45.695896 324.25032227 45.63007324 325.28189453 45.56225586 326.34472656 C45.296875 328.828125 45.296875 328.828125 44.296875 330.828125 C44.04501036 332.19572479 43.83506125 333.57119968 43.6484375 334.94921875 C43.53161621 335.79323242 43.41479492 336.63724609 43.29443359 337.50683594 C43.17148926 338.41723633 43.04854492 339.32763672 42.921875 340.265625 C41.80867238 348.30896448 40.61591705 356.33283111 39.29931641 364.34545898 C38.57144681 368.83967729 38.00693043 373.32753474 37.52490234 377.85449219 C37.27185825 380.04465117 36.89395296 382.17478693 36.421875 384.328125 C35.44316125 389.0230075 34.57282851 393.73157729 33.734375 398.453125 C33.60756348 399.15759766 33.48075195 399.86207031 33.35009766 400.58789062 C32.72077045 404.14936719 32.18013439 407.6952845 31.76953125 411.2890625 C31.296875 414.828125 31.296875 414.828125 30.296875 415.828125 C29.84800421 418.88723604 29.47944169 421.94546538 29.13476562 425.01757812 C28.62653243 429.20327103 27.65349067 432.8516682 26.296875 436.828125 C25.46344641 440.272642 24.73288257 443.73930263 23.984375 447.203125 C21.28589261 459.35888664 18.0179665 471.17076429 13.1875 482.671875 C12.34815374 484.70397647 11.63172107 486.74811094 10.921875 488.828125 C7.88346713 496.96907653 3.18063832 504.94831621 -4.42578125 509.43359375 C-11.06600427 512.25905217 -18.65090392 511.51733621 -25.578125 509.953125 C-34.80497714 503.67886554 -40.05302178 493.24114911 -43.578125 482.96484375 C-44.21527221 481.18835343 -44.87571445 479.41874841 -45.60888672 477.6796875 C-48.3920246 471.06492393 -50.21433045 464.43769611 -51.828125 457.453125 C-52.07949219 456.40640625 -52.33085937 455.3596875 -52.58984375 454.28125 C-54.05581382 448.06430887 -55.26367496 441.85397173 -56.23242188 435.5402832 C-56.71220619 432.7757998 -57.35875476 430.10177908 -58.078125 427.390625 C-61.51841017 414.01367862 -63.88784746 400.44866198 -65.10766602 386.69311523 C-65.38885802 382.63071515 -65.38885802 382.63071515 -66.703125 378.828125 C-66.90844632 377.47927798 -67.06902344 376.1234033 -67.203125 374.765625 C-67.326875 373.57066406 -67.326875 373.57066406 -67.453125 372.3515625 C-67.61979167 370.66927083 -67.78645833 368.98697917 -67.953125 367.3046875 C-68.076875 366.10972656 -68.076875 366.10972656 -68.203125 364.890625 C-68.2753125 364.15972656 -68.3475 363.42882812 -68.421875 362.67578125 C-68.61990544 360.7382961 -68.61990544 360.7382961 -69.703125 358.828125 C-69.91322922 356.9796821 -70.07150997 355.12521507 -70.203125 353.26953125 C-70.285625 352.16158203 -70.368125 351.05363281 -70.453125 349.91210938 C-70.535625 348.75001953 -70.618125 347.58792969 -70.703125 346.390625 C-70.86628526 344.10000796 -71.03279833 341.80962656 -71.203125 339.51953125 C-71.2753125 338.50060791 -71.3475 337.48168457 -71.421875 336.43188477 C-71.62169721 333.7182121 -71.62169721 333.7182121 -72.703125 330.828125 C-72.90946417 328.72747765 -73.06952886 326.62214991 -73.203125 324.515625 C-73.285625 323.27554687 -73.368125 322.03546875 -73.453125 320.7578125 C-73.703125 316.828125 -73.703125 316.828125 -73.953125 312.8984375 C-74.035625 311.65835937 -74.118125 310.41828125 -74.203125 309.140625 C-74.2753125 308.00238281 -74.3475 306.86414063 -74.421875 305.69140625 C-74.6030125 302.75850637 -74.6030125 302.75850637 -75.703125 299.828125 C-76.06518348 295.77660021 -76.13683593 291.70543072 -76.265625 287.640625 C-76.3073584 286.32940674 -76.3490918 285.01818848 -76.39208984 283.66723633 C-76.80775276 269.11996776 -76.81373121 254.5677422 -76.828125 240.015625 C-76.8307132 238.80774323 -76.83330139 237.59986145 -76.83596802 236.3553772 C-76.90112222 197.73006765 -76.90112222 197.73006765 -73.953125 185.078125 C-73.7782959 184.29574463 -73.6034668 183.51336426 -73.42333984 182.70727539 C-69.6975875 166.69046561 -64.24725526 152.9167147 -50.703125 142.828125 C-45.96968662 139.92567281 -42.31707467 137.828125 -36.703125 137.828125 C-37.31263033 133.3126348 -39.11901065 129.65914414 -41.265625 125.703125 C-41.62060059 125.04368896 -41.97557617 124.38425293 -42.34130859 123.70483398 C-45.64470276 117.70150836 -49.51752382 112.24939223 -53.703125 106.828125 C-54.76602172 105.37008079 -55.82855597 103.91177223 -56.890625 102.453125 C-59.27159632 99.29977424 -61.83636766 96.55837009 -64.703125 93.828125 C-66.14667005 92.43854426 -67.58378714 91.04226593 -69.015625 89.640625 C-69.71300781 88.96644531 -70.41039062 88.29226563 -71.12890625 87.59765625 C-72.703125 85.828125 -72.703125 85.828125 -72.703125 83.828125 C-73.363125 83.828125 -74.023125 83.828125 -74.703125 83.828125 C-78.703125 78.41636029 -78.703125 78.41636029 -78.703125 75.828125 C-79.363125 75.828125 -80.023125 75.828125 -80.703125 75.828125 C-85.3181357 68.22571898 -85.79128718 60.55268196 -84.703125 51.828125 C-83.13890459 47.02733795 -80.48018796 43.96504305 -76.203125 41.328125 C-69.93509617 38.7554266 -63.06536433 38.27253399 -56.6328125 40.56640625 C-49.76561881 43.50057083 -43.39779781 46.96575052 -37.703125 51.828125 C-37.66445313 49.90613281 -37.66445313 49.90613281 -37.625 47.9453125 C-37.18769656 32.86346265 -35.22560626 18.78229651 -26.703125 5.828125 C-19.08302447 -0.86441322 -9.88526609 -4.28551998 0 0 Z M-23.890625 7.953125 C-34.085227 24.123873 -35.77815951 42.20432731 -32.703125 60.828125 C-33.59773438 60.09207031 -34.49234375 59.35601562 -35.4140625 58.59765625 C-42.16004429 53.12356531 -48.59440047 48.15013505 -56.703125 44.828125 C-57.71375 44.395 -58.724375 43.961875 -59.765625 43.515625 C-65.39435103 42.19826359 -69.90161372 41.86064672 -75.078125 44.640625 C-75.944375 45.3625 -76.810625 46.084375 -77.703125 46.828125 C-78.30125 47.323125 -78.899375 47.818125 -79.515625 48.328125 C-82.31182826 51.86017122 -82.10930376 56.81024423 -82.02734375 61.12890625 C-80.53250113 73.57392129 -68.58358646 83.70063007 -60.515625 92.515625 C-53.4977969 100.217581 -47.42188066 108.02058116 -41.953125 116.890625 C-41.26295288 118.00642944 -41.26295288 118.00642944 -40.55883789 119.14477539 C-36.69684883 125.53827049 -32.67371176 132.30607762 -31.703125 139.828125 C-32.59451172 139.92287109 -32.59451172 139.92287109 -33.50390625 140.01953125 C-44.13646684 141.59043834 -52.20610495 147.25442935 -58.9921875 155.453125 C-61.81020555 159.36489435 -63.85634482 163.38389499 -65.703125 167.828125 C-66.06148438 168.63894531 -66.41984375 169.44976562 -66.7890625 170.28515625 C-75.6031275 192.91675923 -73.96242977 221.08302986 -74.015625 245.015625 C-74.01857574 246.19198517 -74.02152649 247.36834534 -74.02456665 248.58035278 C-74.03695972 270.51626324 -72.5762856 292.10100305 -70.22460938 313.89697266 C-69.72615036 318.54060144 -69.28920052 323.18802798 -68.875 327.83984375 C-67.85256742 339.2365104 -66.76811019 350.57291667 -64.82128906 361.85302734 C-63.91644872 367.16227694 -63.28742536 372.46716713 -62.73046875 377.82373047 C-61.16609615 392.80439621 -58.47888224 407.39824688 -55.45556641 422.14160156 C-54.67417212 425.96997719 -53.91897669 429.80304248 -53.1640625 433.63671875 C-52.01901204 439.36383234 -50.7693297 445.04364341 -49.328125 450.703125 C-49.11607422 451.53972656 -48.90402344 452.37632812 -48.68554688 453.23828125 C-41.96194441 482.88617429 -41.96194441 482.88617429 -23.703125 505.828125 C-19.2358102 508.0617824 -13.19482052 507.42733897 -8.4453125 506.28515625 C0.59723608 502.50856243 4.99734825 492.32692323 8.75 483.86328125 C13.38240308 472.27924979 16.71589233 460.01967064 19.296875 447.828125 C19.73264159 445.99437888 20.17002053 444.1610148 20.609375 442.328125 C22.62212713 433.63669533 24.31817615 424.88118091 26.04296875 416.12890625 C26.77675856 412.41100077 27.52980657 408.6998153 28.33203125 404.99609375 C31.39301742 390.71149162 33.33000257 376.27004756 35.324646 361.80717468 C36.06404818 356.45861984 36.83371562 351.11512608 37.62109375 345.7734375 C39.80356887 330.91929423 41.84217757 316.09065687 43.30908203 301.14477539 C43.94946816 294.67426988 44.81941323 288.28172216 45.83959961 281.86035156 C46.46488556 277.71403467 46.87413271 273.5670079 47.234375 269.390625 C47.39751389 267.5871558 47.56163931 265.78377566 47.7265625 263.98046875 C47.81518555 263.00835449 47.90380859 262.03624023 47.99511719 261.03466797 C48.33102487 257.46524118 48.69065889 253.89869867 49.0546875 250.33203125 C49.1875415 249.0287085 49.32039551 247.72538574 49.45727539 246.38256836 C49.71769912 243.83762613 49.97979845 241.29285458 50.24389648 238.74829102 C51.61838919 225.23683697 52.4884505 211.78682135 52.546875 198.203125 C52.5675 196.9965625 52.588125 195.79 52.609375 194.546875 C52.6758548 179.09032126 49.34649209 163.22754375 38.296875 151.828125 C31.58222215 145.87625672 21.66527199 138.828125 12.296875 138.828125 C20.85027571 117.65089494 33.86762276 101.29045481 48.73535156 84.171875 C60.09875712 71.28784572 60.09875712 71.28784572 62.77734375 54.79296875 C62.0372378 50.22597348 60.90040334 48.741616 57.296875 45.828125 C50.82092088 42.23037271 45.53264675 42.11754414 38.484375 43.890625 C29.29231425 46.86165526 22.39153451 53.53882894 15.296875 59.828125 C15.2875293 59.11906006 15.27818359 58.40999512 15.26855469 57.67944336 C15.46846578 31.01675634 15.46846578 31.01675634 3.5625 8.0234375 C-1.14530491 3.8186032 -5.00538605 1.32865469 -11.546875 1.51171875 C-16.46670569 2.23365043 -20.36117415 4.52451561 -23.890625 7.953125 Z " fill="#E6E5D0" transform="translate(392.703125,169.171875)"/>
<path d="M0 0 C15.13720732 4.59640748 25.41795962 11.38297461 33.609375 25.2421875 C43.61354882 45.08192546 39.39883991 71.94291368 37.625 93.375 C37.56187622 94.14506378 37.49875244 94.91512756 37.43371582 95.70852661 C36.68179131 104.72861013 35.69483413 113.67977822 34.45068359 122.64599609 C33.74325515 127.91070466 33.26277981 133.1906255 32.7890625 138.48046875 C32.35113611 143.12399863 31.75080913 147.70657446 31.01171875 152.3125 C30.16409312 157.67558749 29.58228594 163.0148042 29.11328125 168.42260742 C27.80570291 183.43110202 25.74690349 198.29322778 23.5 213.1875 C23.3505191 214.17852722 23.20103821 215.16955444 23.04702759 216.19061279 C22.18310184 221.89768704 21.305969 227.60262241 20.41876221 233.30612183 C20.00930125 235.94016549 19.6029771 238.57468029 19.19677734 241.20922852 C17.82976947 250.02736015 16.35839895 258.807574 14.625 267.5625 C14.19372365 269.76556888 13.76274358 271.96869578 13.33203125 274.171875 C13.11369629 275.28498047 12.89536133 276.39808594 12.67041016 277.54492188 C11.97752945 281.11580597 11.30463624 284.68999213 10.63671875 288.265625 C10.30389893 290.03570923 10.30389893 290.03570923 9.96435547 291.84155273 C9.53908586 294.10599396 9.11736882 296.37110611 8.69970703 298.63696289 C8.50618652 299.66039795 8.31266602 300.68383301 8.11328125 301.73828125 C7.94610596 302.63587158 7.77893066 303.53346191 7.60668945 304.45825195 C6.97390163 307.1093401 6.03311443 309.48167144 5 312 C4.5550651 313.88692847 4.11280259 315.77476148 3.70776367 317.6706543 C0.52340209 332.57006983 -5.21117007 355.61402751 -17.75390625 365.36328125 C-23.41327224 368.33353165 -28.67725198 368.92409394 -35 368 C-43.9690274 364.03293019 -49.37832074 353.71520602 -52.81494141 344.91259766 C-53.57827526 342.76419426 -54.29870783 340.60692898 -55 338.4375 C-55.2563623 337.65592529 -55.51272461 336.87435059 -55.77685547 336.0690918 C-57.74481139 329.98424127 -59.47376728 323.86544171 -61.0546875 317.66796875 C-61.71325361 315.1126234 -62.3984833 312.58365786 -63.1328125 310.05078125 C-66.97193174 296.69552975 -66.97193174 296.69552975 -66 290 C-63.5 286.9375 -63.5 286.9375 -61 285 C-60.67 286.65 -60.34 288.3 -60 290 C-58.73542969 289.97679687 -57.47085937 289.95359375 -56.16796875 289.9296875 C-54.5078184 289.91092874 -52.84766167 289.89272865 -51.1875 289.875 C-50.35412109 289.85824219 -49.52074219 289.84148437 -48.66210938 289.82421875 C-47.85966797 289.81777344 -47.05722656 289.81132813 -46.23046875 289.8046875 C-45.49207764 289.79421387 -44.75368652 289.78374023 -43.99291992 289.77294922 C-42 290 -42 290 -39 292 C-39 293.32 -39 294.64 -39 296 C-45.6 296 -52.2 296 -59 296 C-52.27506445 330.00853248 -52.27506445 330.00853248 -35.625 359.5 C-32.1672717 361.47584475 -29.93044914 361.42111955 -26 361 C-20.41137748 359.34604629 -18.72104361 356.33307944 -15.82421875 351.48828125 C-10.595763 341.49039905 -7.07391345 330.84469738 -4.12109375 319.98046875 C-3.86528534 319.03984589 -3.60947693 318.09922302 -3.34591675 317.13009644 C-0.3110097 305.72735503 2.03258469 294.18572592 4.375 282.625 C4.8287784 280.41262727 5.28320274 278.20038692 5.73828125 275.98828125 C6.83292934 270.66034853 7.91975556 265.33087074 9 260 C1.86639329 259.23791133 -5.13654036 258.80768997 -12.3125 258.8125 C-13.31853271 258.81185547 -14.32456543 258.81121094 -15.36108398 258.81054688 C-21.86194409 258.85664855 -27.99470046 259.28742977 -34.37890625 260.5625 C-37.2908326 261.04854434 -40.05310717 261.06923684 -43 261 C-43 259.35 -43 257.7 -43 256 C-41.66809481 255.53753292 -40.3343693 255.08030845 -39 254.625 C-38.2575 254.36976563 -37.515 254.11453125 -36.75 253.8515625 C-29.62097797 251.64399602 -23.44917395 250.64340166 -16 250.6875 C-15.09096924 250.68878906 -14.18193848 250.69007813 -13.24536133 250.69140625 C-4.93110901 250.80788295 2.92899394 252.08213717 11 254 C10.96390625 252.86691406 10.9278125 251.73382812 10.890625 250.56640625 C10.89474932 245.85746714 11.76287735 241.52530461 12.75 236.9375 C15.15090046 225.1382952 16.60214385 213.25406667 18.0703125 201.3125 C18.79561712 195.44955633 19.64033872 189.61454494 20.56738281 183.78027344 C21.65478624 176.79192684 22.11228832 170.07416431 22 163 C9.36585722 159.09800088 -2.60211475 156.68755885 -15.88427734 156.98535156 C-17.58913995 157.02159833 -19.29481675 157.01484612 -21 157 C-22 156 -22 156 -22.125 153.5 C-22 151 -22 151 -21 150 C-5.30271837 148.91421965 9.09161387 151.03053796 24 156 C24.05534912 155.3294458 24.11069824 154.6588916 24.16772461 153.96801758 C24.42134011 150.91592263 24.67937638 147.86421686 24.9375 144.8125 C25.02451172 143.75740234 25.11152344 142.70230469 25.20117188 141.61523438 C25.28818359 140.59365234 25.37519531 139.57207031 25.46484375 138.51953125 C25.543396 137.58214111 25.62194824 136.64475098 25.70288086 135.67895508 C25.99200241 133.07210978 26.48046264 130.56914918 27 128 C27.19008241 126.36713928 27.35614972 124.73133131 27.5 123.09375 C27.5825 122.18496094 27.665 121.27617187 27.75 120.33984375 C27.8325 119.40269531 27.915 118.46554687 28 117.5 C28.16416443 115.6351947 28.33075395 113.77060098 28.5 111.90625 C28.5721875 111.08447266 28.644375 110.26269531 28.71875 109.41601562 C29.01093816 106.90603814 29.47208257 104.47021365 30 102 C28.19402344 101.92652344 28.19402344 101.92652344 26.3515625 101.8515625 C24.77601802 101.77653657 23.20049834 101.70098867 21.625 101.625 C20.8309375 101.5940625 20.036875 101.563125 19.21875 101.53125 C13.2265625 101.2265625 13.2265625 101.2265625 11 99 C11 98.01 11 97.02 11 96 C14.19125404 94.93624865 16.52470971 94.86664516 19.875 94.875 C21.41800781 94.87113281 21.41800781 94.87113281 22.9921875 94.8671875 C25.774648 94.99004939 28.29239874 95.37055764 31 96 C30.98839844 95.42894531 30.97679687 94.85789062 30.96484375 94.26953125 C30.88547172 87.13738751 31.37660007 80.1023064 32 73 C15.37528431 68.06862366 -0.66510321 65.36532975 -18 65 C-18.625 63.125 -18.625 63.125 -19 61 C-16.31968678 58.31968678 -14.22407203 58.71316608 -10.57641602 58.6706543 C-9.70557373 58.67621338 -8.83473145 58.68177246 -7.9375 58.6875 C-7.041521 58.69241455 -6.14554199 58.6973291 -5.22241211 58.70239258 C8.38195588 58.93692991 20.53563921 61.51568125 33 67 C32.35185349 39.81361761 32.35185349 39.81361761 19 17 C12.5829977 12.02977583 5.6354352 8.66660535 -2 6 C-1.49396008 3.83125748 -1.00016187 2.00032373 0 0 Z " fill="#5E5640" transform="translate(406,308)"/>
<path d="M0 0 C0.33 0 0.66 0 1 0 C3.04627666 13.22810781 4.98784817 26.43521557 6.375 39.75 C7.83941509 53.43368861 10.48261137 66.83154668 13.24511719 80.30102539 C13.7702793 82.87435371 14.28775103 85.4481187 14.79394531 88.02514648 C14.92526855 88.69149612 15.0565918 89.35784576 15.19189453 90.04438782 C15.5552442 91.89149664 15.91684122 93.73894998 16.27832031 95.58642578 C17.19978759 99.94500342 18.33744789 104.22536679 19.546875 108.51171875 C20.0144538 111.07937128 19.84598642 112.55921487 19 115 C18.67 115 18.34 115 18 115 C17.67 115.99 17.34 116.98 17 118 C14.74448894 109.98527138 12.74217127 102.10233894 11.48828125 93.859375 C11.0065454 91.03832987 10.3556236 88.32871129 9.625 85.5625 C6.18471483 72.18555362 3.81527754 58.62053698 2.59545898 44.86499023 C2.31426698 40.80259015 2.31426698 40.80259015 1 37 C0.79467868 35.65115298 0.63410156 34.2952783 0.5 32.9375 C0.37625 31.74253906 0.37625 31.74253906 0.25 30.5234375 C0.08333333 28.84114583 -0.08333333 27.15885417 -0.25 25.4765625 C-0.3325 24.67992187 -0.415 23.88328125 -0.5 23.0625 C-0.5721875 22.33160156 -0.644375 21.60070312 -0.71875 20.84765625 C-0.91678044 18.9101711 -0.91678044 18.9101711 -2 17 C-2.07092842 14.7927077 -2.08415025 12.58332548 -2.0625 10.375 C-2.05347656 9.18648437 -2.04445313 7.99796875 -2.03515625 6.7734375 C-2.02355469 5.85820313 -2.01195312 4.94296875 -2 4 C-1.34 4 -0.68 4 0 4 C0 2.68 0 1.36 0 0 Z " fill="#E7E6D5" transform="translate(325,511)"/>
<path d="M0 0 C0.33 0 0.66 0 1 0 C0.99214478 1.58361328 0.99214478 1.58361328 0.98413086 3.19921875 C0.84107337 35.01256573 2.13708302 66.24006684 5.0625 97.92578125 C5.14607254 98.83148361 5.22964508 99.73718597 5.31575012 100.67033386 C5.65006143 104.27884362 5.9887785 107.88653988 6.34545898 111.49291992 C6.87522635 116.91212573 7.13049172 122.24293258 7.0625 127.6875 C7.05798828 128.40099609 7.05347656 129.11449219 7.04882812 129.84960938 C7.03730574 131.56644474 7.0193863 133.28323543 7 135 C6.01 134.67 5.02 134.34 4 134 C3.93941406 133.24074219 3.87882812 132.48148438 3.81640625 131.69921875 C3.73261719 130.70535156 3.64882813 129.71148437 3.5625 128.6875 C3.48128906 127.70136719 3.40007812 126.71523438 3.31640625 125.69921875 C3.08187441 122.90624401 3.08187441 122.90624401 2 120 C1.79366083 117.89935265 1.63359614 115.79402491 1.5 113.6875 C1.4175 112.44742188 1.335 111.20734375 1.25 109.9296875 C1.08333333 107.30989583 0.91666667 104.69010417 0.75 102.0703125 C0.6675 100.83023438 0.585 99.59015625 0.5 98.3125 C0.4278125 97.17425781 0.355625 96.03601563 0.28125 94.86328125 C0.1001125 91.93038137 0.1001125 91.93038137 -1 89 C-1.36143427 84.92752534 -1.43303819 80.83562332 -1.5625 76.75 C-1.6049585 75.44925537 -1.64741699 74.14851074 -1.69116211 72.80834961 C-2.37171168 49.55180928 -2.08329349 26.26343643 -2 3 C-1.34 3 -0.68 3 0 3 C0 2.01 0 1.02 0 0 Z " fill="#E5E4CB" transform="translate(318,380)"/>
<path d="M0 0 C1.66611905 -0.042721 3.33382885 -0.04063832 5 0 C6 1 6 1 6.3125 4.375 C6.27548009 7.89806132 5.54078334 10.44891736 4.1875 13.6875 C1.56353743 20.2334985 0.85735821 26.95806378 0.03979492 33.91479492 C-0.06872803 34.80013916 -0.17725098 35.6854834 -0.2890625 36.59765625 C-0.37881348 37.39695557 -0.46856445 38.19625488 -0.56103516 39.01977539 C-1 41 -1 41 -3 43 C-5.625 42.625 -5.625 42.625 -8 42 C-8.49361992 27.0634269 -7.86966826 13.21979846 0 0 Z " fill="#ECB06E" transform="translate(344,342)"/>
<path d="M0 0 C1.4540625 0.0309375 1.4540625 0.0309375 2.9375 0.0625 C1.66293968 2.82703929 0.30369922 4.94812386 -1.75 7.1875 C-8.72794422 15.20110017 -14.54863857 23.9601484 -18.0625 34.0625 C-17.37270584 37.25971777 -17.37270584 37.25971777 -14.55859375 38.44921875 C-13.54925781 38.87847656 -12.53992188 39.30773437 -11.5 39.75 C-10.48808594 40.18699219 -9.47617187 40.62398438 -8.43359375 41.07421875 C-7.65113281 41.40035156 -6.86867188 41.72648437 -6.0625 42.0625 C-7.0525 42.5575 -7.0525 42.5575 -8.0625 43.0625 C-8.0625 43.7225 -8.0625 44.3825 -8.0625 45.0625 C-13.78460596 43.19486819 -19.43911751 41.20960968 -25.0625 39.0625 C-23.09057375 29.63351931 -11.185725 0.2282801 0 0 Z " fill="#E1E0C9" transform="translate(430.0625,268.9375)"/>
<path d="M0 0 C1.30469238 0.00773437 1.30469238 0.00773437 2.63574219 0.015625 C3.52229492 0.01691406 4.40884766 0.01820313 5.32226562 0.01953125 C13.94538806 0.14249913 22.16641903 1.49866089 30.57324219 3.328125 C30.57324219 3.988125 30.57324219 4.648125 30.57324219 5.328125 C31.23324219 5.658125 31.89324219 5.988125 32.57324219 6.328125 C31.91324219 7.318125 31.25324219 8.308125 30.57324219 9.328125 C26.44788281 9.76699302 22.92812938 9.22961102 18.88574219 8.390625 C10.23694568 6.67787176 1.36079253 6.65518368 -7.42675781 6.328125 C-8.05175781 4.453125 -8.05175781 4.453125 -8.42675781 2.328125 C-5.74569958 -0.35293323 -3.64871043 0.04065416 0 0 Z " fill="#3D3124" transform="translate(395.4267578125,366.671875)"/>
<path d="M0 0 C0.33 0 0.66 0 1 0 C1.19431666 5.24654987 0.7521028 9.83629422 -0.359375 14.95703125 C-1.17534552 18.83289121 -1.873058 22.72493366 -2.5625 26.625 C-2.68923096 27.32939209 -2.81596191 28.03378418 -2.9465332 28.75952148 C-3.57621106 32.32104593 -4.11672894 35.86705735 -4.52734375 39.4609375 C-5 43 -5 43 -6 44 C-6.39943176 46.52195967 -6.75079848 49.02963656 -7.0625 51.5625 C-7.15337891 52.27341797 -7.24425781 52.98433594 -7.33789062 53.71679688 C-7.56239503 55.47738403 -7.78168397 57.23863478 -8 59 C-8.4640625 58.0409375 -8.4640625 58.0409375 -8.9375 57.0625 C-9.8345163 55.06389179 -9.8345163 55.06389179 -11 54 C-11.66 54.66 -12.32 55.32 -13 56 C-12.25401243 49.14520311 -10.96841799 42.44776592 -9.625 35.6875 C-7.49664214 24.82463264 -5.62257547 13.94908652 -4 3 C-3.01 3.33 -2.02 3.66 -1 4 C-0.67 2.68 -0.34 1.36 0 0 Z " fill="#DFDDCA" transform="translate(429,541)"/>
<path d="M0 0 C0.33 0 0.66 0 1 0 C1.18951343 5.78015952 0.77304884 10.94725582 -0.359375 16.609375 C-1.36913872 21.95373418 -2.14866711 27.33471923 -2.9465332 32.71435547 C-3.89120598 38.89120598 -3.89120598 38.89120598 -5 40 C-5.36760731 42.32817964 -5.70241581 44.6618385 -6 47 C-6.495 45.515 -6.495 45.515 -7 44 C-7.66 44 -8.32 44 -9 44 C-8.70769506 34.74854874 -7.59597241 25.80317664 -6 16.6875 C-5.82178711 15.66712646 -5.64357422 14.64675293 -5.45996094 13.59545898 C-4.14047664 6.28095328 -4.14047664 6.28095328 -3 4 C-2.34 4 -1.68 4 -1 4 C-0.67 2.68 -0.34 1.36 0 0 Z " fill="#F4F2E7" transform="translate(435,501)"/>
<path d="M0 0 C7.13622061 0.95397394 12.383918 6.57915955 16.7734375 12.05859375 C20.9678702 18.69755251 25.17782218 26.73026982 25.0625 34.6875 C25.05347656 35.49574219 25.04445313 36.30398438 25.03515625 37.13671875 C25.02355469 37.75160156 25.01195312 38.36648438 25 39 C24.34 39 23.68 39 23 39 C22.75765625 38.32195312 22.5153125 37.64390625 22.265625 36.9453125 C21.56042743 34.9870331 20.84763962 33.03147703 20.12890625 31.078125 C19.43206219 29.1780796 18.74932182 27.27271053 18.08984375 25.359375 C14.77296286 16.22718347 9.6717152 9.58961404 1.50390625 4.2890625 C1.00761719 3.86367188 0.51132812 3.43828125 0 3 C0 2.01 0 1.02 0 0 Z " fill="#E2E1CF" transform="translate(422,312)"/>
<path d="M0 0 C0.33 0 0.66 0 1 0 C1.0694429 7.26688753 1.12278189 14.53370378 1.15543652 21.80085564 C1.17110744 25.17513606 1.19237093 28.54918987 1.22631836 31.92333984 C1.2625736 35.80051748 1.27969728 39.67737172 1.29296875 43.5546875 C1.30845261 44.76929657 1.32393646 45.98390564 1.33988953 47.23532104 C1.34011612 48.35633209 1.34034271 49.47734314 1.34057617 50.63232422 C1.34723801 51.62271698 1.35389984 52.61310974 1.36076355 53.6335144 C1.24171158 54.41445465 1.12265961 55.1953949 1 56 C0.01 56.66 -0.98 57.32 -2 58 C-2 39.85 -2 21.7 -2 3 C-1.34 3 -0.68 3 0 3 C0 2.01 0 1.02 0 0 Z " fill="#FAFAEF" transform="translate(318,380)"/>
<path d="M0 0 C-0.5648582 4.70715168 -1.47524303 8.42572908 -3 13 C0.96 14.98 4.92 16.96 9 19 C8.34 19.33 7.68 19.66 7 20 C7 20.66 7 21.32 7 22 C1.27789404 20.13236819 -4.37661751 18.14710968 -10 16 C-9.54636829 14.41531323 -9.08688548 12.83230076 -8.625 11.25 C-8.36976563 10.36828125 -8.11453125 9.4865625 -7.8515625 8.578125 C-5.01818182 0 -5.01818182 0 0 0 Z " fill="#E2E1CD" transform="translate(415,292)"/>
<path d="M0 0 C0.33 0 0.66 0 1 0 C1.67640509 4.33187088 2.33936494 8.66569839 3 13 C3.19078125 14.22074219 3.3815625 15.44148437 3.578125 16.69921875 C4.51193459 22.86903211 5.24963615 28.75909622 5 35 C4.34 34.67 3.68 34.34 3 34 C2.34 34.99 1.68 35.98 1 37 C0.80083984 35.08574219 0.80083984 35.08574219 0.59765625 33.1328125 C0.41947335 31.46352004 0.24107686 29.79425036 0.0625 28.125 C-0.02451172 27.28324219 -0.11152344 26.44148437 -0.20117188 25.57421875 C-0.28818359 24.76855469 -0.37519531 23.96289062 -0.46484375 23.1328125 C-0.543396 22.38918457 -0.62194824 21.64555664 -0.70288086 20.87939453 C-0.91637347 18.91553684 -0.91637347 18.91553684 -2 17 C-2.07092842 14.7927077 -2.08415025 12.58332548 -2.0625 10.375 C-2.05347656 9.18648437 -2.04445313 7.99796875 -2.03515625 6.7734375 C-2.02355469 5.85820313 -2.01195312 4.94296875 -2 4 C-1.34 4 -0.68 4 0 4 C0 2.68 0 1.36 0 0 Z " fill="#D8D7C2" transform="translate(325,511)"/>
<path d="M0 0 C0.33 0 0.66 0 1 0 C2.75445809 10.76172061 3.23990235 21.11109903 3 32 C1.02 32.495 1.02 32.495 -1 33 C-1.02465392 28.46102295 -1.04283789 23.92208457 -1.05493164 19.38305664 C-1.0599714 17.83780234 -1.0668032 16.29255284 -1.07543945 14.74731445 C-1.08752076 12.53074971 -1.09323173 10.31424782 -1.09765625 8.09765625 C-1.10281754 7.4028566 -1.10797882 6.70805695 -1.11329651 5.99220276 C-1.11349277 4.3277067 -1.06189129 2.66334501 -1 1 C-0.67 0.67 -0.34 0.34 0 0 Z " fill="#EAEADF" transform="translate(318,436)"/>
<path d="M0 0 C0 0.66 0 1.32 0 2 C-1.11375 2.061875 -2.2275 2.12375 -3.375 2.1875 C-9.67460483 3.02521341 -15.60139191 5.26950903 -19.86328125 10.12109375 C-21.38556153 12.36107442 -22.72918734 14.60936232 -24 17 C-24.50853516 17.94746094 -24.50853516 17.94746094 -25.02734375 18.9140625 C-25.71896611 20.25906083 -26.36621527 21.62679976 -27 23 C-27.66 22.67 -28.32 22.34 -29 22 C-24.39885984 7.31551012 -24.39885984 7.31551012 -18 3 C-17.154375 2.4225 -16.30875 1.845 -15.4375 1.25 C-10.33150239 -0.6067264 -5.37661567 -0.23490068 0 0 Z " fill="#EEEDDA" transform="translate(389,168)"/>
<path d="M0 0 C-0.26782361 4.55300141 -2.11886249 6.68954869 -5.34375 9.640625 C-11.27743075 14.51072146 -16.64236123 14.35348087 -24 14 C-24 13.01 -24 12.02 -24 11 C-22.2675 10.62875 -22.2675 10.62875 -20.5 10.25 C-14.12824553 8.64017511 -5.33115832 0 0 0 Z " fill="#ECEBDA" transform="translate(398,666)"/>
<path d="M0 0 C0.66 0.33 1.32 0.66 2 1 C1.94199219 1.95519531 1.88398438 2.91039062 1.82421875 3.89453125 C1.51192618 12.84394414 2.37962916 19.06286295 7 27 C6.34 27 5.68 27 5 27 C4.67 27.99 4.34 28.98 4 30 C4 29.34 4 28.68 4 28 C3.34 28 2.68 28 2 28 C-2.61582372 20.39625468 -2.86821554 12.67205988 -2 4 C-0.9765625 1.55078125 -0.9765625 1.55078125 0 0 Z " fill="#E3E1C3" transform="translate(310,217)"/>
<path d="M0 0 C0.66 0 1.32 0 2 0 C2.16816121 3.58326484 2.33426877 7.16662202 2.5 10.75 C2.54769531 11.76578125 2.59539062 12.7815625 2.64453125 13.828125 C2.68964844 14.8078125 2.73476563 15.7875 2.78125 16.796875 C2.82314453 17.69760742 2.86503906 18.59833984 2.90820312 19.52636719 C2.98823524 21.68297724 3 23.84190546 3 26 C1 27.75 1 27.75 -1 29 C-1.02465881 25.03069011 -1.04284023 21.06140966 -1.05493164 17.09204102 C-1.05997057 15.74079614 -1.06680177 14.38955674 -1.07543945 13.03833008 C-1.08752419 11.09979566 -1.09269828 9.161222 -1.09765625 7.22265625 C-1.10289307 6.05484619 -1.10812988 4.88703613 -1.11352539 3.68383789 C-1 1 -1 1 0 0 Z " fill="#EFEEE0" transform="translate(408,201)"/>
<path d="M0 0 C0 0.66 0 1.32 0 2 C0.99 2.33 1.98 2.66 3 3 C2.39414062 3.13535156 1.78828125 3.27070313 1.1640625 3.41015625 C-5.09512868 5.01828691 -9.62968157 7.48339077 -14.7734375 11.37890625 C-16.79223839 12.84873497 -18.73628345 13.96117117 -21 15 C-21.66 14.01 -22.32 13.02 -23 12 C-16.83058382 6.88301364 -8.27294859 0 0 0 Z " fill="#E2E2CF" transform="translate(433,210)"/>
<path d="M0 0 C1.74216797 0.02707031 1.74216797 0.02707031 3.51953125 0.0546875 C4.39996094 0.07789063 5.28039062 0.10109375 6.1875 0.125 C6.8475 1.445 7.5075 2.765 8.1875 4.125 C7.17429687 4.07859375 6.16109375 4.0321875 5.1171875 3.984375 C3.76565468 3.94683242 2.41408972 3.91043494 1.0625 3.875 C0.39734375 3.84148437 -0.2678125 3.80796875 -0.953125 3.7734375 C-6.12050969 3.67211623 -8.79657348 4.98210099 -12.8125 8.125 C-13.8025 8.785 -14.7925 9.445 -15.8125 10.125 C-16.1425 8.805 -16.4725 7.485 -16.8125 6.125 C-11.25270403 1.35946059 -7.34166601 -0.14831649 0 0 Z " fill="#ECECDA" transform="translate(327.8125,208.875)"/>
<path d="M0 0 C0.99 0.33 1.98 0.66 3 1 C3 9.58 3 18.16 3 27 C2.01 26.67 1.02 26.34 0 26 C0 17.42 0 8.84 0 0 Z " fill="#FBFADE" transform="translate(446,354)"/>
<path d="M0 0 C1.63001953 0.01353516 1.63001953 0.01353516 3.29296875 0.02734375 C4.12441406 0.03894531 4.95585937 0.05054688 5.8125 0.0625 C6.1425 1.7125 6.4725 3.3625 6.8125 5.0625 C1.8625 5.0625 -3.0875 5.0625 -8.1875 5.0625 C-8.5175 3.7425 -8.8475 2.4225 -9.1875 1.0625 C-5.90230525 -0.03256492 -3.45086585 -0.03710608 0 0 Z " fill="#4C412F" transform="translate(426.1875,402.9375)"/>
<path d="M0 0 C0.33 0 0.66 0 1 0 C1.19148936 20.53191489 1.19148936 20.53191489 0 30 C-0.99 29.67 -1.98 29.34 -3 29 C-3.05394705 26.39555652 -3.09364469 23.79223002 -3.125 21.1875 C-3.14175781 20.44951172 -3.15851563 19.71152344 -3.17578125 18.95117188 C-3.21074628 15.08753574 -3.19397555 13.29096332 -1 10 C-0.54398739 7.49103314 -0.54398739 7.49103314 -0.375 4.8125 C-0.30023438 3.91144531 -0.22546875 3.01039063 -0.1484375 2.08203125 C-0.09945313 1.39496094 -0.05046875 0.70789063 0 0 Z " fill="#F6F6E2" transform="translate(446,384)"/>
<path d="M0 0 C4.53376337 4.53376337 4.125 12.01890461 4.125 18.0625 C4.09325784 20.04185071 4.05505272 22.02116044 4 24 C3.34 24 2.68 24 2 24 C0.33360552 18.8171731 -0.41267873 14.05147096 -0.6875 8.625 C-0.73455078 7.90183594 -0.78160156 7.17867187 -0.83007812 6.43359375 C-0.93360209 4.62446997 -0.97254734 2.81187538 -1 1 C-0.67 0.67 -0.34 0.34 0 0 Z " fill="#E8E7CF" transform="translate(328,544)"/>
<path d="M0 0 C2.36798831 2.87209787 3.64832592 5.36911918 4.6875 8.9375 C4.93886719 9.77152344 5.19023437 10.60554687 5.44921875 11.46484375 C6.0121497 14.05592311 6.09927943 16.35727613 6 19 C5.01 19.33 4.02 19.66 3 20 C0.60897498 13.77431221 -0.94673811 7.71099849 -1 1 C-0.67 0.67 -0.34 0.34 0 0 Z " fill="#F4F4E5" transform="translate(343,623)"/>
<path d="M0 0 C1.32257813 0.08701172 1.32257813 0.08701172 2.671875 0.17578125 C3.56390625 0.22089844 4.4559375 0.26601563 5.375 0.3125 C6.05046875 0.37050781 6.7259375 0.42851563 7.421875 0.48828125 C7.751875 2.13828125 8.081875 3.78828125 8.421875 5.48828125 C3.471875 5.48828125 -1.478125 5.48828125 -6.578125 5.48828125 C-2.578125 0.48828125 -2.578125 0.48828125 0 0 Z " fill="#4E422D" transform="translate(358.578125,598.51171875)"/>
<path d="M0 0 C0.33 0 0.66 0 1 0 C3.38858824 8.36005884 3.190218 16.38735156 3 25 C2.01 24.67 1.02 24.34 0 24 C-1.33257403 7.1070615 -1.33257403 7.1070615 0 0 Z " fill="#FAF9E2" transform="translate(322,490)"/>
<path d="M0 0 C2.03211232 0.880582 3.90810937 1.94818933 5.8359375 3.03515625 C8.21571675 4.09617696 10.16235857 4.3966787 12.75 4.625 C13.94882812 4.73714844 13.94882812 4.73714844 15.171875 4.8515625 C15.77515625 4.90054688 16.3784375 4.94953125 17 5 C17 5.33 17 5.66 17 6 C15.02 6 13.04 6 11 6 C11 6.99 11 7.98 11 9 C4.87647862 8.63258872 2.21348564 7.21348564 -2 3 C-2 2.34 -2 1.68 -2 1 C-1.34 0.67 -0.68 0.34 0 0 Z " fill="#DADAC5" transform="translate(363,671)"/>
<path d="M0 0 C10.55808656 4.03872437 10.55808656 4.03872437 15 7 C14.67 8.32 14.34 9.64 14 11 C8.38098156 8.89286808 2.99385521 6.32923681 -2 3 C-1.34 2.67 -0.68 2.34 0 2 C0 1.34 0 0.68 0 0 Z " fill="#E1DDC2" transform="translate(335,210)"/>
<path d="M0 0 C4.1724106 0.51881113 6.25416821 1.71151274 9.3125 4.5625 C10.00988281 5.20316406 10.70726562 5.84382813 11.42578125 6.50390625 C11.94527344 6.99761719 12.46476562 7.49132812 13 8 C12.67 9.32 12.34 10.64 12 12 C9.33333333 10 6.66666667 8 4 6 C3.25234375 5.50113281 2.5046875 5.00226563 1.734375 4.48828125 C1.16203125 3.99714844 0.5896875 3.50601562 0 3 C0 2.01 0 1.02 0 0 Z " fill="#EBEBD9" transform="translate(422,312)"/>
<path d="M0 0 C0.33 0 0.66 0 1 0 C1.474377 7.28695785 1.28670939 11.97181491 -3 18 C-3.66 18 -4.32 18 -5 18 C-5.33 18.66 -5.66 19.32 -6 20 C-5.34 14.06 -4.68 8.12 -4 2 C-3.01 3.32 -2.02 4.64 -1 6 C-0.67 4.02 -0.34 2.04 0 0 Z " fill="#D4D2BE" transform="translate(437,487)"/>
<path d="M0 0 C0.05418326 2.08304538 0.09287551 4.16649768 0.125 6.25 C0.14820313 7.41015625 0.17140625 8.5703125 0.1953125 9.765625 C0.0103949 12.82786046 -0.39176977 14.44202751 -2 17 C-2 16.01 -2 15.02 -2 14 C-2.99 14 -3.98 14 -5 14 C-4.85851011 12.3954444 -4.71164314 10.79136233 -4.5625 9.1875 C-4.48128906 8.29417969 -4.40007812 7.40085937 -4.31640625 6.48046875 C-4 4 -4 4 -3 1 C-1 0 -1 0 0 0 Z " fill="#D7D4C0" transform="translate(442,444)"/>
<path d="M0 0 C1.44349674 0.73839246 2.87959051 1.49126643 4.3125 2.25 C5.51326172 2.87648437 5.51326172 2.87648437 6.73828125 3.515625 C9.13190204 5.08656783 10.43301591 6.6267037 12 9 C6.94274506 9 4.17634866 7.52089035 -0.18359375 4.921875 C-2.71574192 3.63674173 -5.19474557 3.27368336 -8 3 C-5.64561267 1.57055055 -4.51967567 0.91338739 -1.75 1.375 C-1.1725 1.58125 -0.595 1.7875 0 2 C0 1.34 0 0.68 0 0 Z " fill="#E2E2D5" transform="translate(389,168)"/>
<path d="M0 0 C0.66 0 1.32 0 2 0 C2.02688151 1.64574566 2.04634123 3.29161413 2.0625 4.9375 C2.07410156 5.85402344 2.08570313 6.77054688 2.09765625 7.71484375 C2 10 2 10 1 11 C0.63239269 13.32817964 0.29758419 15.6618385 0 18 C-0.33 17.01 -0.66 16.02 -1 15 C-1.66 15 -2.32 15 -3 15 C-2.88529863 13.24929483 -2.75780972 11.49942464 -2.625 9.75 C-2.55539062 8.77546875 -2.48578125 7.8009375 -2.4140625 6.796875 C-2.01534751 4.10366811 -1.36492937 2.33036721 0 0 Z " fill="#F4F3E3" transform="translate(429,530)"/>
<path d="M0 0 C0.33 0 0.66 0 1 0 C1.2358396 5.77807024 0.86783046 10.51324804 -1 16 C-1.99 16 -2.98 16 -4 16 C-4.02698189 14.37509046 -4.04638757 12.75005367 -4.0625 11.125 C-4.07410156 10.22007812 -4.08570313 9.31515625 -4.09765625 8.3828125 C-4 6 -4 6 -3 4 C-2.34 4 -1.68 4 -1 4 C-0.67 2.68 -0.34 1.36 0 0 Z " fill="#F2F1DD" transform="translate(435,501)"/>
<path d="M0 0 C-0.46800711 4.05606165 -0.87953208 7.46588679 -3 11 C-4.65 11 -6.3 11 -8 11 C-7.57576756 9.53775201 -7.13509755 8.08026588 -6.6875 6.625 C-6.44386719 5.81289063 -6.20023437 5.00078125 -5.94921875 4.1640625 C-4.69142795 1.29650652 -3.21723189 0 0 0 Z " fill="#E6E6D4" transform="translate(415,292)"/>
<path d="M0 0 C0.66 0.99 1.32 1.98 2 3 C2.66 3 3.32 3 4 3 C2.00437637 11.35010941 2.00437637 11.35010941 -2.1875 14.0625 C-3.115625 14.371875 -4.04375 14.68125 -5 15 C-3.33333333 10 -1.66666667 5 0 0 Z " fill="#E0DFC8" transform="translate(404,642)"/>
<path d="M0 0 C5.23517403 2.39322241 7.29888643 6.16098377 10 11 C8.68 11.33 7.36 11.66 6 12 C0 4.6 0 4.6 0 0 Z " fill="#E9E7D5" transform="translate(354,660)"/>
<path d="M0 0 C1.83979073 2.7596861 2.48323221 4.29741882 3.1875 7.4375 C3.36667969 8.19933594 3.54585938 8.96117187 3.73046875 9.74609375 C4.0154963 12.12958496 3.72875415 13.73104204 3 16 C2.67 16 2.34 16 2 16 C1.67 16.99 1.34 17.98 1 19 C-2.81321185 6.51480638 -2.81321185 6.51480638 0 0 Z " fill="#D9D5BF" transform="translate(341,610)"/>
<path d="M0 0 C0.66 0.66 1.32 1.32 2 2 C1.9765625 4.3828125 1.9765625 4.3828125 1.625 7.125 C1.51414062 8.03507813 1.40328125 8.94515625 1.2890625 9.8828125 C1.19367188 10.58148437 1.09828125 11.28015625 1 12 C-0.32 12.33 -1.64 12.66 -3 13 C-3.31563182 7.73946963 -2.66590937 4.55426184 0 0 Z " fill="#EEECDB" transform="translate(418,594)"/>
<path d="M0 0 C0.99 0 1.98 0 3 0 C2.67 4.62 2.34 9.24 2 14 C1.34 12.68 0.68 11.36 0 10 C-0.33 9.67 -0.66 9.34 -1 9 C-1.66 9.66 -2.32 10.32 -3 11 C-2.67 8.36 -2.34 5.72 -2 3 C-1.34 3 -0.68 3 0 3 C0 2.01 0 1.02 0 0 Z " fill="#F7F6E2" transform="translate(419,586)"/>
<path d="M0 0 C5.58490566 3.2780968 5.58490566 3.2780968 7.4375 6.5 C8.0271534 9.12068176 7.92345561 10.50666985 7 13 C6.34 13 5.68 13 5 13 C4.15615325 11.58957044 3.32530504 10.17135868 2.5 8.75 C2.0359375 7.96109375 1.571875 7.1721875 1.09375 6.359375 C0 4 0 4 0 0 Z " fill="#EDEDD9" transform="translate(397,175)"/>
<path d="M0 0 C0.33 0 0.66 0 1 0 C1 1.98 1 3.96 1 6 C1.66 6 2.32 6 3 6 C3.33 4.68 3.66 3.36 4 2 C4.36504603 3.58086048 4.71660506 5.16483907 5.0625 6.75 C5.25972656 7.63171875 5.45695312 8.5134375 5.66015625 9.421875 C5.99825872 11.98679028 5.81158635 13.57091639 5 16 C5 15.01 5 14.02 5 13 C4.34 13 3.68 13 3 13 C2.67 14.32 2.34 15.64 2 17 C0.7017874 11.23918159 -0.25706972 5.91260345 0 0 Z " fill="#CCCBB6" transform="translate(329,562)"/>
<path d="M0 0 C4.29 0 8.58 0 13 0 C13 1.32 13 2.64 13 4 C8.71 3.67 4.42 3.34 0 3 C0 2.01 0 1.02 0 0 Z " fill="#EBEAE2" transform="translate(433,209)"/>
<path d="M0 0 C5.01113235 1.4317521 6.94469549 3.98445693 10 8 C8.02 8.99 8.02 8.99 6 10 C5.21625 9.195625 4.4325 8.39125 3.625 7.5625 C1.28017144 5.01309583 1.28017144 5.01309583 -1 4 C-0.67 2.68 -0.34 1.36 0 0 Z " fill="#E2DFCE" transform="translate(447,210)"/>
<path d="M0 0 C0.33 0 0.66 0 1 0 C1.12375 1.134375 1.2475 2.26875 1.375 3.4375 C1.58125 4.613125 1.7875 5.78875 2 7 C2.66 7.33 3.32 7.66 4 8 C3.67 13.94 3.34 19.88 3 26 C2.67 26 2.34 26 2 26 C1.90912109 24.71802734 1.90912109 24.71802734 1.81640625 23.41015625 C1.73261719 22.30542969 1.64882813 21.20070313 1.5625 20.0625 C1.48128906 18.96035156 1.40007812 17.85820312 1.31640625 16.72265625 C1.29581916 14.08890097 1.29581916 14.08890097 0 13 C-0.07258946 10.81360547 -0.08373783 8.62499611 -0.0625 6.4375 C-0.05347656 5.23996094 -0.04445313 4.04242188 -0.03515625 2.80859375 C-0.02355469 1.88175781 -0.01195312 0.95492188 0 0 Z " fill="#CCCABE" transform="translate(442,406)"/>
<path d="M0 0 C0.33 0 0.66 0 1 0 C1.304 9.12 1.304 9.12 -1 12 C-2.32 12.33 -3.64 12.66 -5 13 C-4.67 9.7 -4.34 6.4 -4 3 C-3.01 3.33 -2.02 3.66 -1 4 C-0.67 2.68 -0.34 1.36 0 0 Z " fill="#DBDAC5" transform="translate(429,541)"/>
<path d="M0 0 C1 3 1 3 -0.0625 6.0625 C-2.38792283 9.58814107 -3.95845511 10.10187891 -8 11 C-6.94124926 7.59687262 -5.99097846 4.98646769 -4 2 C-2.68 2 -1.36 2 0 2 C0 1.34 0 0.68 0 0 Z " fill="#DADBC0" transform="translate(458,232)"/>
<path d="M0 0 C0.99 0.33 1.98 0.66 3 1 C3 4.96 3 8.92 3 13 C2.01 13.33 1.02 13.66 0 14 C0 9.38 0 4.76 0 0 Z " fill="#EAE9D8" transform="translate(441,419)"/>
<path d="M0 0 C3 3 3 3 3.328125 5.41015625 C3.30234375 6.28542969 3.2765625 7.16070312 3.25 8.0625 C3.23453125 8.94035156 3.2190625 9.81820313 3.203125 10.72265625 C3 13 3 13 2 15 C1.34 15 0.68 15 0 15 C0 10.05 0 5.1 0 0 Z " fill="#F1F1E7" transform="translate(317,364)"/>
<path d="M0 0 C2.50014115 3.74095194 1.90042304 6.44209421 1.125 10.75 C0.92132813 11.92046875 0.71765625 13.0909375 0.5078125 14.296875 C0.34023438 15.18890625 0.17265625 16.0809375 0 17 C-1.546875 15.3515625 -1.546875 15.3515625 -3 13 C-2.890625 10.2734375 -2.890625 10.2734375 -2.25 7.375 C-2.04890625 6.41335937 -1.8478125 5.45171875 -1.640625 4.4609375 C-1 2 -1 2 0 0 Z " fill="#E2E1CC" transform="translate(360,187)"/>
<path d="M0 0 C0.33 0.99 0.66 1.98 1 3 C1.99 3 2.98 3 4 3 C3.67 5.97 3.34 8.94 3 12 C1.68 11.34 0.36 10.68 -1 10 C-0.67 6.7 -0.34 3.4 0 0 Z " fill="#CECDB8" transform="translate(414,604)"/>
<path d="M0 0 C0.99 0 1.98 0 3 0 C7 6.75 7 6.75 7 9 C5.68 9 4.36 9 3 9 C0.43228397 5.69865082 0 4.27125508 0 0 Z " fill="#E8E8D2" transform="translate(315,244)"/>
<path d="M0 0 C1.32 0 2.64 0 4 0 C3.8864371 1.64666203 3.75882619 3.29236082 3.625 4.9375 C3.55539062 5.85402344 3.48578125 6.77054688 3.4140625 7.71484375 C3.27742188 8.46894531 3.14078125 9.22304688 3 10 C2.01 10.495 2.01 10.495 1 11 C1 10.34 1 9.68 1 9 C0.34 8.67 -0.32 8.34 -1 8 C-0.67 5.36 -0.34 2.72 0 0 Z " fill="#F2F1E1" transform="translate(409,626)"/>
<path d="M0 0 C0.66 0 1.32 0 2 0 C2.336611 1.77021322 2.66917293 3.54119674 3 5.3125 C3.185625 6.29863281 3.37125 7.28476562 3.5625 8.30078125 C4 11 4 11 4 14 C3.34 14 2.68 14 2 14 C0.09391902 10.78817851 -0.22266247 8.46117397 -0.125 4.75 C-0.09792969 3.41195312 -0.09792969 3.41195312 -0.0703125 2.046875 C-0.04710937 1.37140625 -0.02390625 0.6959375 0 0 Z " fill="#F6F5E0" transform="translate(332,575)"/>
<path d="M0 0 C0.66 0 1.32 0 2 0 C3.39151652 4.79300133 2.68662689 9.15135782 2 14 C1.01 13.67 0.02 13.34 -1 13 C-0.67 8.71 -0.34 4.42 0 0 Z " fill="#FDFDF3" transform="translate(435,482)"/>
<path d="M0 0 C0.66 0 1.32 0 2 0 C1.34 5.94 0.68 11.88 0 18 C-0.33 18 -0.66 18 -1 18 C-2.45184478 13.46298506 -3.23509196 9.81938524 -3 5 C-2.67 5.99 -2.34 6.98 -2 8 C-1.34 8 -0.68 8 0 8 C0 5.36 0 2.72 0 0 Z " fill="#CFCDB8" transform="translate(321,355)"/>
<path d="M0 0 C0.33 0 0.66 0 1 0 C1.66 5.28 2.32 10.56 3 16 C1.68 15.67 0.36 15.34 -1 15 C-1.33 12.69 -1.66 10.38 -2 8 C-1.67 8.99 -1.34 9.98 -1 11 C-0.34 11 0.32 11 1 11 C0.67 10.01 0.34 9.02 0 8 C-0.12781786 5.32605036 -0.04391871 2.67904143 0 0 Z " fill="#D1D0BA" transform="translate(335,578)"/>
<path d="M0 0 C0.33 0 0.66 0 1 0 C1.07347656 1.24716797 1.07347656 1.24716797 1.1484375 2.51953125 C1.22320312 3.60621094 1.29796875 4.69289063 1.375 5.8125 C1.44460938 6.89144531 1.51421875 7.97039062 1.5859375 9.08203125 C1.81195733 12.18626186 1.81195733 12.18626186 4 15 C3.625 17.1875 3.625 17.1875 3 19 C2.67 17.68 2.34 16.36 2 15 C1.34 15 0.68 15 0 15 C0 16.98 0 18.96 0 21 C-0.33 21 -0.66 21 -1 21 C-0.67 14.07 -0.34 7.14 0 0 Z " fill="#C9C6AC" transform="translate(435,467)"/>
<path d="M0 0 C2 2 2 2 2.265625 4.49609375 C2.26046875 5.46675781 2.2553125 6.43742188 2.25 7.4375 C2.25515625 8.40558594 2.2603125 9.37367188 2.265625 10.37109375 C2 13 2 13 0 16 C-0.19389096 13.5211787 -0.38040123 11.04219069 -0.5625 8.5625 C-0.61857422 7.85544922 -0.67464844 7.14839844 -0.73242188 6.41992188 C-0.86190993 4.61572163 -0.93521608 2.80768048 -1 1 C-0.67 0.67 -0.34 0.34 0 0 Z " fill="#FAFAEF" transform="translate(328,544)"/>
<path d="M0 0 C0.33 0 0.66 0 1 0 C2.5056904 5.80766296 3.21824777 10.9981863 3 17 C2.67 17 2.34 17 2 17 C2 15.35 2 13.7 2 12 C1.01 12.33 0.02 12.66 -1 13 C-0.67 8.71 -0.34 4.42 0 0 Z " fill="#E5E4CF" transform="translate(322,490)"/>
<path d="M0 0 C0.99 0 1.98 0 3 0 C3.25 5.625 3.25 5.625 1 9 C0.34 9 -0.32 9 -1 9 C-1.09765625 2.84765625 -1.09765625 2.84765625 -1 1 C-0.67 0.67 -0.34 0.34 0 0 Z " fill="#F4F3E5" transform="translate(425,553)"/>
<path d="M0 0 C0.33 0 0.66 0 1 0 C1 5.61 1 11.22 1 17 C0.01 17 -0.98 17 -2 17 C-2.04254356 15.00045254 -2.04080783 12.99958364 -2 11 C-1.67 10.67 -1.34 10.34 -1 10 C-0.76712992 8.31816052 -0.58735834 6.6287584 -0.4375 4.9375 C-0.35371094 4.01839844 -0.26992188 3.09929687 -0.18359375 2.15234375 C-0.12300781 1.44207031 -0.06242187 0.73179687 0 0 Z " fill="#FDFCD8" transform="translate(446,384)"/>
<path d="M0 0 C1.65 0 3.3 0 5 0 C3.25 5.75 3.25 5.75 1 8 C1 7.01 1 6.02 1 5 C-0.98 5.99 -0.98 5.99 -3 7 C-1.125 2.25 -1.125 2.25 0 0 Z " fill="#D2D0B7" transform="translate(414,287)"/>
<path d="M0 0 C0.99 0.66 1.98 1.32 3 2 C2.09650406 3.01191545 1.17659153 4.00918926 0.25 5 C-0.51570313 5.8353125 -0.51570313 5.8353125 -1.296875 6.6875 C-3 8 -3 8 -7 8 C-7 7.34 -7 6.68 -7 6 C-5.46875 4.4921875 -5.46875 4.4921875 -3.5 2.875 C-2.8503125 2.33617187 -2.200625 1.79734375 -1.53125 1.2421875 C-1.0259375 0.83226562 -0.520625 0.42234375 0 0 Z " fill="#EFEED9" transform="translate(444,252)"/>
<path d="M0 0 C1.32 0 2.64 0 4 0 C4.77842938 3.40562852 5.09978121 6.50765756 5 10 C4.34 10 3.68 10 3 10 C0 3.375 0 3.375 0 0 Z " fill="#EBEBDB" transform="translate(354,297)"/>
<path d="M0 0 C2.88437779 1.29299694 4.87219421 2.65941363 7 5 C6.01 6.485 6.01 6.485 5 8 C2.5 6.25 2.5 6.25 0 4 C0 2.68 0 1.36 0 0 Z " fill="#E7E7DA" transform="translate(349,218)"/>
<path d="M0 0 C0.103125 0.61875 0.20625 1.2375 0.3125 1.875 C0.87525373 4.36526484 0.87525373 4.36526484 4 6 C3.67 7.65 3.34 9.3 3 11 C2.67 10.34 2.34 9.68 2 9 C1.01 9.33 0.02 9.66 -1 10 C-1.125 3.375 -1.125 3.375 0 0 Z " fill="#DAD8C2" transform="translate(411,617)"/>
<path d="M0 0 C2.50037734 2.17424117 3.43628586 3.73045798 4 7 C3.01 7 2.02 7 1 7 C0.67 7.66 0.34 8.32 0 9 C-0.99 6.69 -1.98 4.38 -3 2 C-2.34 2 -1.68 2 -1 2 C-0.67 1.34 -0.34 0.68 0 0 Z " fill="#D4D4C1" transform="translate(353,290)"/>
<path d="M0 0 C1.65 0.33 3.3 0.66 5 1 C2.64619703 4.92300495 0.35535069 5.83857315 -4 7 C-2.68 4.69 -1.36 2.38 0 0 Z " fill="#E2E0D1" transform="translate(396,662)"/>
<path d="M0 0 C0.99 0.66 1.98 1.32 3 2 C2.25 7.75 2.25 7.75 0 10 C0 9.01 0 8.02 0 7 C-0.66 6.67 -1.32 6.34 -2 6 C-1.34 4.02 -0.68 2.04 0 0 Z " fill="#D8D6C5" transform="translate(324,336)"/>
<path d="M0 0 C2.1519437 3.22791555 2.20086443 4.28400809 2 8 C0.35 8.33 -1.3 8.66 -3 9 C-3 7.35 -3 5.7 -3 4 C-2.67 4.66 -2.34 5.32 -2 6 C-1.34 4.02 -0.68 2.04 0 0 Z " fill="#CCCBB5" transform="translate(359,301)"/>
<path d="M0 0 C2.60334924 2.71182212 2.99456691 3.89133813 3.1875 7.75 C3.125625 8.8225 3.06375 9.895 3 11 C2.01 10.67 1.02 10.34 0 10 C-0.19412181 8.52168779 -0.38012131 7.04230684 -0.5625 5.5625 C-0.66691406 4.73878906 -0.77132813 3.91507813 -0.87890625 3.06640625 C-0.91886719 2.38449219 -0.95882813 1.70257812 -1 1 C-0.67 0.67 -0.34 0.34 0 0 Z " fill="#F8F7E8" transform="translate(343,623)"/>
<path d="M0 0 C1.4321146 2.8642292 0.53266189 4.45581499 -0.3125 7.5 C-0.57675781 8.4796875 -0.84101563 9.459375 -1.11328125 10.46875 C-2 13 -2 13 -4 15 C-4.042721 13.33388095 -4.04063832 11.66617115 -4 10 C-3.67 9.67 -3.34 9.34 -3 9 C-2.855625 7.865625 -2.71125 6.73125 -2.5625 5.5625 C-2 2 -2 2 0 0 Z " fill="#DDA162" transform="translate(403,621)"/>
<path d="M0 0 C0.99 0 1.98 0 3 0 C3.33 2.64 3.66 5.28 4 8 C3.67 7.34 3.34 6.68 3 6 C2.34 6 1.68 6 1 6 C0.34 7.32 -0.32 8.64 -1 10 C-0.67 6.7 -0.34 3.4 0 0 Z " fill="#D2D0BB" transform="translate(428,524)"/>
<path d="M0 0 C6.75 -0.125 6.75 -0.125 9 1 C9 1.66 9 2.32 9 3 C6.03 3 3.06 3 0 3 C0 2.01 0 1.02 0 0 Z " fill="#FCFCE7" transform="translate(374,677)"/>
<path d="M0 0 C1.5625 1.4375 1.5625 1.4375 3 4 C2.96846324 7.05380927 2.53266629 9.99653222 2 13 C1.67 13 1.34 13 1 13 C-0.10228696 8.59085217 -0.07654536 4.51617599 0 0 Z " fill="#D7A263" transform="translate(336,540)"/>
<path d="M0 0 C0.33 0 0.66 0 1 0 C1 1.65 1 3.3 1 5 C1.99 5 2.98 5 4 5 C4 6.32 4 7.64 4 9 C2.35 9.33 0.7 9.66 -1 10 C-0.67 6.7 -0.34 3.4 0 0 Z " fill="#DCDAC4" transform="translate(430,512)"/>
<path d="M0 0 C0.33 0 0.66 0 1 0 C1.08071788 2.79224073 1.14035408 5.58216566 1.1875 8.375 C1.21263672 9.1690625 1.23777344 9.963125 1.26367188 10.78125 C1.29004405 12.85586148 1.15486462 14.93100865 1 17 C0.01 17.66 -0.98 18.32 -2 19 C-1.84660156 18.32582031 -1.69320313 17.65164063 -1.53515625 16.95703125 C-0.91516143 13.53122048 -0.6647426 10.16106553 -0.4375 6.6875 C-0.35371094 5.43324219 -0.26992188 4.17898438 -0.18359375 2.88671875 C-0.12300781 1.93410156 -0.06242187 0.98148437 0 0 Z " fill="#EFEEDC" transform="translate(318,419)"/>
<path d="M0 0 C0.33 0.66 0.66 1.32 1 2 C1.99 2.33 2.98 2.66 4 3 C2.68 4.32 1.36 5.64 0 7 C-0.33 6.34 -0.66 5.68 -1 5 C-2.98 5.99 -2.98 5.99 -5 7 C-3.35 4.69 -1.7 2.38 0 0 Z " fill="#DBDCBC" transform="translate(436,258)"/>
<path d="M0 0 C0.33 0.99 0.66 1.98 1 3 C-1 6 -1 6 -3.125 6.6875 C-3.74375 6.790625 -4.3625 6.89375 -5 7 C-5 5.68 -5 4.36 -5 3 C-2.5 1.25 -2.5 1.25 0 0 Z " fill="#EDEDD8" transform="translate(454,240)"/>
<path d="M0 0 C0.66 0 1.32 0 2 0 C1.5020163 3.73487777 1.12508244 5.81237635 -1 9 C-1.66 8.67 -2.32 8.34 -3 8 C-1.125 1.125 -1.125 1.125 0 0 Z " fill="#EEEFE0" transform="translate(363,182)"/>
<path d="M0 0 C2 2 2 2 2.125 4.625 C2.08375 5.40875 2.0425 6.1925 2 7 C0.68 7 -0.64 7 -2 7 C-1.125 1.125 -1.125 1.125 0 0 Z " fill="#F8F7E9" transform="translate(418,594)"/>
<path d="M0 0 C1.65 0 3.3 0 5 0 C5.33 0.99 5.66 1.98 6 3 C4.68 3.33 3.36 3.66 2 4 C2.33 4.66 2.66 5.32 3 6 C1.68 5.67 0.36 5.34 -1 5 C-0.67 3.35 -0.34 1.7 0 0 Z " fill="#D3D2BA" transform="translate(406,303)"/>
<path d="M0 0 C2.475 0.99 2.475 0.99 5 2 C5 3.65 5 5.3 5 7 C3.0625 6.3125 3.0625 6.3125 1 5 C0.25 2.375 0.25 2.375 0 0 Z " fill="#F1F2DC" transform="translate(348,286)"/>
<path d="M0 0 C1.32 1.65 2.64 3.3 4 5 C3.01 5.495 3.01 5.495 2 6 C1.67 6.99 1.34 7.98 1 9 C1 8.34 1 7.68 1 7 C0.34 7 -0.32 7 -1 7 C-1.33 6.01 -1.66 5.02 -2 4 C-1.34 4 -0.68 4 0 4 C0 2.68 0 1.36 0 0 Z " fill="#CFCFB0" transform="translate(313,238)"/>
<path d="M0 0 C1.32 0.66 2.64 1.32 4 2 C3.01 3.485 3.01 3.485 2 5 C-1.3 4.34 -4.6 3.68 -8 3 C-4 1 -4 1 -1.75 1.375 C-1.1725 1.58125 -0.595 1.7875 0 2 C0 1.34 0 0.68 0 0 Z " fill="#D3D0C1" transform="translate(389,168)"/>
<path d="M0 0 C0.33 1.32 0.66 2.64 1 4 C1.99 4 2.98 4 4 4 C4 6.31 4 8.62 4 11 C3.690625 10.360625 3.38125 9.72125 3.0625 9.0625 C2.1654837 7.06389179 2.1654837 7.06389179 1 6 C0.34 6.66 -0.32 7.32 -1 8 C-0.67 5.36 -0.34 2.72 0 0 Z " fill="#B3B2A1" transform="translate(417,589)"/>
<path d="M0 0 C0.66 0.66 1.32 1.32 2 2 C1.75 4.5625 1.75 4.5625 1 7 C0.01 7.495 0.01 7.495 -1 8 C-1.66 7.34 -2.32 6.68 -3 6 C-2.01 4.02 -1.02 2.04 0 0 Z " fill="#E4E3C6" transform="translate(366,175)"/>
<path d="M0 0 C2 3 2 3 1.625 5.1875 C1.41875 5.785625 1.2125 6.38375 1 7 C0.34 6.67 -0.32 6.34 -1 6 C-1.33 6.99 -1.66 7.98 -2 9 C-2.6875 6.1875 -2.6875 6.1875 -3 3 C-1.5625 1.125 -1.5625 1.125 0 0 Z " fill="#D8D7C9" transform="translate(346,630)"/>
<path d="M0 0 C0.33 0.66 0.66 1.32 1 2 C1.66 2.33 2.32 2.66 3 3 C2.34 3.66 1.68 4.32 1 5 C0.01 5 -0.98 5 -2 5 C-2 5.66 -2 6.32 -2 7 C-2.66 6.67 -3.32 6.34 -4 6 C-1.125 1.125 -1.125 1.125 0 0 Z " fill="#DCDBC6" transform="translate(334,319)"/>
<path d="M0 0 C1.98 0.495 1.98 0.495 4 1 C4 2.32 4 3.64 4 5 C2.35 5 0.7 5 -1 5 C-0.67 3.35 -0.34 1.7 0 0 Z " fill="#EEEEDE" transform="translate(408,298)"/>
<path d="M0 0 C0.33 0.99 0.66 1.98 1 3 C-0.4375 5.1875 -0.4375 5.1875 -2 7 C-2.99 6.34 -3.98 5.68 -5 5 C-4.67 4.01 -4.34 3.02 -4 2 C-2.68 2 -1.36 2 0 2 C0 1.34 0 0.68 0 0 Z " fill="#E1E1CD" transform="translate(458,232)"/>
<path d="M0 0 C3.96 0 7.92 0 12 0 C11.67 0.99 11.34 1.98 11 3 C7.37 2.34 3.74 1.68 0 1 C0 0.67 0 0.34 0 0 Z " fill="#F3F2D5" transform="translate(435,210)"/>
<path d="M0 0 C0 0.66 0 1.32 0 2 C0.99 2.33 1.98 2.66 3 3 C0.36 3.66 -2.28 4.32 -5 5 C-4.67 4.01 -4.34 3.02 -4 2 C-4.66 1.67 -5.32 1.34 -6 1 C-3 0 -3 0 0 0 Z " fill="#CECDBE" transform="translate(433,210)"/>
<path d="M0 0 C0.66 0.33 1.32 0.66 2 1 C2 2.98 2 4.96 2 7 C1.01 7 0.02 7 -1 7 C-1.04254356 5.00045254 -1.04080783 2.99958364 -1 1 C-0.67 0.67 -0.34 0.34 0 0 Z " fill="#FDFCEE" transform="translate(432,510)"/>
<path d="M0 0 C0.99 0 1.98 0 3 0 C3 2.64 3 5.28 3 8 C2.01 7.67 1.02 7.34 0 7 C0 4.69 0 2.38 0 0 Z " fill="#FDFCF1" transform="translate(440,435)"/>
<path d="M0 0 C0.99 0 1.98 0 3 0 C3 2.31 3 4.62 3 7 C2.34 7 1.68 7 1 7 C0.67 4.69 0.34 2.38 0 0 Z " fill="#FAF9E1" transform="translate(444,344)"/>
<path d="M0 0 C0.66 0 1.32 0 2 0 C2.33 1.65 2.66 3.3 3 5 C2.01 5 1.02 5 0 5 C-0.33 5.99 -0.66 6.98 -1 8 C-1.04241723 5.66705225 -1.04092937 3.33297433 -1 1 C-0.67 0.67 -0.34 0.34 0 0 Z " fill="#E7E3CA" transform="translate(444,339)"/>
<path d="M0 0 C0.33 0 0.66 0 1 0 C1 2.31 1 4.62 1 7 C-2.875 5.25 -2.875 5.25 -4 3 C-2.68 2.67 -1.36 2.34 0 2 C0 1.34 0 0.68 0 0 Z " fill="#C9CBB8" transform="translate(359,223)"/>
<path d="M0 0 C0.66 0 1.32 0 2 0 C2 2.31 2 4.62 2 7 C1.01 7 0.02 7 -1 7 C-0.67 4.69 -0.34 2.38 0 0 Z " fill="#FBFBE7" transform="translate(421,577)"/>
<path d="M0 0 C0.33 0 0.66 0 1 0 C1 2.64 1 5.28 1 8 C-0.32 8 -1.64 8 -3 8 C-3 7.01 -3 6.02 -3 5 C-2.34 4.67 -1.68 4.34 -1 4 C-0.34786708 1.97536745 -0.34786708 1.97536745 0 0 Z " fill="#C1C0AA" transform="translate(321,464)"/>
<path d="M0 0 C1.12133403 3.36400208 0.90131013 4.64057132 0 8 C-0.66 9.32 -1.32 10.64 -2 12 C-2 8.37 -2 4.74 -2 1 C-1.34 0.67 -0.68 0.34 0 0 Z " fill="#E1A564" transform="translate(328,432)"/>
<path d="M0 0 C0.66 0 1.32 0 2 0 C1.67 2.97 1.34 5.94 1 9 C-2 5.25 -2 5.25 -2 3 C-1.34 3 -0.68 3 0 3 C0 2.01 0 1.02 0 0 Z " fill="#D0D0B7" transform="translate(359,195)"/>
<path d="M0 0 C0.99 0.33 1.98 0.66 3 1 C3 2.98 3 4.96 3 7 C2.01 6.67 1.02 6.34 0 6 C0 4.02 0 2.04 0 0 Z " fill="#FDFEF0" transform="translate(335,593)"/>
<path d="M0 0 C0.66 0 1.32 0 2 0 C2.33 1.65 2.66 3.3 3 5 C1.02 5.99 1.02 5.99 -1 7 C-0.67 4.69 -0.34 2.38 0 0 Z " fill="#F3F2DE" transform="translate(435,482)"/>
<path d="M0 0 C0.33 0 0.66 0 1 0 C1 2.97 1 5.94 1 9 C0.01 9.33 -0.98 9.66 -2 10 C-1.34 6.7 -0.68 3.4 0 0 Z " fill="#F6F6E1" transform="translate(320,459)"/>
<path d="M0 0 C3 2 3 2 3.6875 5.125 C3.8421875 6.548125 3.8421875 6.548125 4 8 C2.68 7.67 1.36 7.34 0 7 C0 4.69 0 2.38 0 0 Z " fill="#E6E4CC" transform="translate(439,438)"/>
<path d="M0 0 C0.66 0.33 1.32 0.66 2 1 C2 2.65 2 4.3 2 6 C1.01 6.33 0.02 6.66 -1 7 C-1.04254356 5.00045254 -1.04080783 2.99958364 -1 1 C-0.67 0.67 -0.34 0.34 0 0 Z " fill="#FCFCF0" transform="translate(442,426)"/>
<path d="M0 0 C0.99 0.33 1.98 0.66 3 1 C0.53846154 4.81538462 0.53846154 4.81538462 -2.1875 5.75 C-2.785625 5.8325 -3.38375 5.915 -4 6 C-3.67 4.68 -3.34 3.36 -3 2 C-2.01 2 -1.02 2 0 2 C0 1.34 0 0.68 0 0 Z " fill="#F0EFDF" transform="translate(332,324)"/>
<path d="M0 0 C2.475 0.495 2.475 0.495 5 1 C4.67 2.32 4.34 3.64 4 5 C2 3.625 2 3.625 0 2 C0 1.34 0 0.68 0 0 Z " fill="#F3F2DA" transform="translate(430,319)"/>
</svg>
